<?xml version="1.0" encoding="utf-8"?>
<!-- Generator: Adobe Illustrator 22.1.0, SVG Export Plug-In . SVG Version: 6.00 Build 0)  -->
<svg version="1.1" xmlns="http://www.w3.org/2000/svg" xmlns:xlink="http://www.w3.org/1999/xlink" x="0px" y="0px"
	 viewBox="0 0 22 22" style="enable-background:new 0 0 22 22;" xml:space="preserve">
<style type="text/css">
	.st0{fill:#CC0000;}
	.st1{fill:#FFFFFF;}
	.st2{display:none;}
	.st3{display:inline;fill:#FFFFFF;}
	.st4{display:none;opacity:0.54;}
	.st5{display:inline;fill:#303030;}
	.st6{display:inline;opacity:0.54;}
	.st7{display:inline;fill:#CC0000;}
	.st8{display:inline;}
</style>
<g id="Layer_1">
	<circle class="st0" cx="11" cy="11" r="10.9"/>
	<g>
		<path class="st1" d="M7.8,9.1V7.7c0.6,0,1-0.1,1.3-0.1c0.4-0.1,0.7-0.3,1-0.5c0.2-0.2,0.3-0.4,0.4-0.7c0-0.2,0.1-0.3,0.1-0.4h1.6
			v9.9h-2V9.1H7.8z"/>
	</g>
	<g class="st2">
		<path class="st3" d="M7.8,34v-1.3c0.6,0,1-0.1,1.3-0.1c0.4-0.1,0.7-0.3,1-0.5c0.2-0.2,0.3-0.4,0.4-0.7c0-0.2,0.1-0.3,0.1-0.4h1.6
			v9.9h-2V34H7.8z"/>
	</g>
	<g class="st4">
		<path class="st3" d="M30.8,34v-1.3c0.6,0,1-0.1,1.3-0.1c0.4-0.1,0.7-0.3,1-0.5c0.2-0.2,0.3-0.4,0.4-0.7c0-0.2,0.1-0.3,0.1-0.4h1.6
			v9.9h-2V34H30.8z"/>
	</g>
	<g class="st2">
		<path class="st3" d="M7.8,58.9v-1.3c0.6,0,1-0.1,1.3-0.1c0.4-0.1,0.7-0.3,1-0.5c0.2-0.2,0.3-0.4,0.4-0.7c0-0.2,0.1-0.3,0.1-0.4
			h1.6v9.9h-2v-6.8H7.8z"/>
	</g>
	<g class="st4">
		<path class="st3" d="M30.8,58.9v-1.3c0.6,0,1-0.1,1.3-0.1c0.4-0.1,0.7-0.3,1-0.5c0.2-0.2,0.3-0.4,0.4-0.7c0-0.2,0.1-0.3,0.1-0.4
			h1.6v9.9h-2v-6.8H30.8z"/>
	</g>
	<g class="st2">
		<path class="st3" d="M7.8,85.5v-1.3c0.6,0,1-0.1,1.3-0.1c0.4-0.1,0.7-0.3,1-0.5c0.2-0.2,0.3-0.4,0.4-0.7c0-0.2,0.1-0.3,0.1-0.4
			h1.6v9.9h-2v-6.8H7.8z"/>
	</g>
</g>
<g id="Layer_2" class="st2">
	<circle class="st5" cx="33.9" cy="11" r="10.9"/>
	<g class="st6">
		<path class="st1" d="M30.8,9.1V7.7c0.6,0,1-0.1,1.3-0.1c0.4-0.1,0.7-0.3,1-0.5c0.2-0.2,0.3-0.4,0.4-0.7c0-0.2,0.1-0.3,0.1-0.4h1.6
			v9.9h-2V9.1H30.8z"/>
	</g>
	<circle class="st7" cx="11" cy="35.9" r="10.9"/>
	<circle class="st7" cx="11" cy="60.8" r="10.9"/>
	<circle class="st7" cx="11" cy="87.4" r="10.9"/>
	<circle class="st7" cx="11" cy="113.2" r="10.9"/>
	<circle class="st7" cx="11" cy="139.1" r="10.9"/>
	<g class="st8">
		<path class="st1" d="M8.1,38.9c0.3-0.7,0.9-1.4,2-2.1c0.9-0.6,1.5-1.1,1.7-1.4c0.4-0.4,0.6-0.9,0.6-1.4c0-0.4-0.1-0.8-0.3-1
			c-0.2-0.3-0.6-0.4-1-0.4c-0.6,0-1,0.2-1.2,0.7c-0.1,0.3-0.2,0.7-0.2,1.2H7.7c0-0.8,0.2-1.5,0.5-2c0.5-1,1.4-1.5,2.8-1.5
			c1,0,1.9,0.3,2.5,0.9s0.9,1.3,0.9,2.3c0,0.7-0.2,1.4-0.7,2c-0.3,0.4-0.8,0.8-1.4,1.3l-0.8,0.6c-0.5,0.3-0.8,0.6-1,0.8
			c-0.2,0.2-0.3,0.3-0.5,0.5h4.3v1.7H7.6C7.6,40.1,7.8,39.5,8.1,38.9z"/>
	</g>
	<g class="st8">
		<path class="st1" d="M9.4,62.7c0,0.4,0.1,0.7,0.2,1c0.2,0.5,0.7,0.7,1.3,0.7c0.4,0,0.7-0.1,1-0.4c0.3-0.3,0.4-0.6,0.4-1.1
			c0-0.7-0.3-1.1-0.8-1.3c-0.3-0.1-0.8-0.2-1.4-0.2v-1.4c0.6,0,1.1-0.1,1.3-0.2c0.4-0.2,0.6-0.6,0.6-1.2c0-0.4-0.1-0.7-0.3-0.9
			c-0.2-0.2-0.5-0.4-0.9-0.4c-0.5,0-0.8,0.1-1,0.4c-0.2,0.3-0.3,0.7-0.3,1.2H7.7c0-0.5,0.1-1,0.3-1.4c0.2-0.4,0.4-0.7,0.8-1.1
			C9,56.2,9.3,56,9.6,55.9s0.8-0.2,1.3-0.2c0.9,0,1.7,0.2,2.3,0.7c0.6,0.5,0.9,1.1,0.9,2c0,0.6-0.2,1.1-0.5,1.5
			c-0.2,0.2-0.4,0.4-0.7,0.5c0.2,0,0.4,0.2,0.8,0.5c0.5,0.5,0.7,1.1,0.7,1.9c0,0.8-0.3,1.6-0.9,2.2c-0.6,0.6-1.4,1-2.6,1
			c-1.4,0-2.4-0.5-2.9-1.4c-0.3-0.5-0.4-1.1-0.5-1.9H9.4z"/>
	</g>
	<g class="st8">
		<path class="st1" d="M14.4,90.1h-1.1v2.1h-1.9v-2.1H7.5v-1.7l3.6-6h2.2v6.2h1.1V90.1z M11.4,88.6v-4.3l-2.5,4.3H11.4z"/>
	</g>
	<g class="st8">
		<path class="st1" d="M9.5,115.5c0.1,0.4,0.2,0.8,0.4,1c0.2,0.2,0.5,0.3,1,0.3c0.5,0,0.8-0.2,1.1-0.5c0.3-0.3,0.4-0.8,0.4-1.3
			c0-0.5-0.1-0.9-0.4-1.3c-0.2-0.3-0.6-0.5-1.1-0.5c-0.2,0-0.4,0-0.6,0.1c-0.3,0.1-0.5,0.3-0.7,0.6l-1.7-0.1l0.7-5.5H14v1.7h-4
			l-0.4,2.2c0.3-0.2,0.5-0.3,0.7-0.4c0.3-0.1,0.6-0.2,1-0.2c0.8,0,1.5,0.3,2.1,0.8c0.6,0.6,0.9,1.4,0.9,2.4c0,0.9-0.3,1.7-0.9,2.5
			c-0.6,0.7-1.5,1.1-2.6,1.1c-0.9,0-1.7-0.3-2.3-0.8s-0.9-1.2-1-2.2H9.5z"/>
	</g>
	<g class="st8">
		<path class="st1" d="M12.2,136.6c0-0.2-0.1-0.3-0.2-0.5c-0.2-0.3-0.5-0.5-1-0.5c-0.6,0-1.1,0.4-1.4,1.1c-0.1,0.4-0.2,1-0.3,1.7
			c0.2-0.3,0.5-0.5,0.8-0.6c0.3-0.1,0.7-0.2,1.1-0.2c0.9,0,1.6,0.3,2.2,0.9c0.6,0.6,0.8,1.4,0.8,2.3c0,0.9-0.3,1.7-0.8,2.4
			c-0.6,0.7-1.4,1.1-2.6,1.1c-1.2,0-2.2-0.5-2.8-1.6c-0.5-0.8-0.7-1.9-0.7-3.2c0-0.8,0-1.4,0.1-1.8c0.1-0.8,0.3-1.5,0.7-2.1
			c0.3-0.5,0.7-0.9,1.1-1.2c0.5-0.3,1-0.4,1.6-0.4c0.9,0,1.7,0.2,2.2,0.7s0.9,1.1,0.9,1.9H12.2z M9.9,142.2c0.3,0.3,0.7,0.5,1.1,0.5
			c0.4,0,0.8-0.2,1-0.5c0.2-0.3,0.4-0.7,0.4-1.3c0-0.6-0.1-1-0.4-1.3s-0.6-0.5-1-0.5c-0.3,0-0.6,0.1-0.9,0.3
			c-0.4,0.3-0.6,0.8-0.6,1.4C9.5,141.4,9.6,141.8,9.9,142.2z"/>
	</g>
	<circle class="st5" cx="33.9" cy="35.9" r="10.9"/>
	<circle class="st5" cx="33.9" cy="60.8" r="10.9"/>
	<circle class="st5" cx="33.9" cy="87.4" r="10.9"/>
	<circle class="st5" cx="33.9" cy="113.2" r="10.9"/>
	<circle class="st5" cx="33.9" cy="139.1" r="10.9"/>
	<g class="st6">
		<path class="st1" d="M31,38.9c0.3-0.7,0.9-1.4,2-2.1c0.9-0.6,1.5-1.1,1.7-1.4c0.4-0.4,0.6-0.9,0.6-1.4c0-0.4-0.1-0.8-0.3-1
			c-0.2-0.3-0.6-0.4-1-0.4c-0.6,0-1,0.2-1.2,0.7c-0.1,0.3-0.2,0.7-0.2,1.2h-1.9c0-0.8,0.2-1.5,0.5-2c0.5-1,1.4-1.5,2.8-1.5
			c1,0,1.9,0.3,2.5,0.9s0.9,1.3,0.9,2.3c0,0.7-0.2,1.4-0.7,2c-0.3,0.4-0.8,0.8-1.4,1.3l-0.8,0.6c-0.5,0.3-0.8,0.6-1,0.8
			c-0.2,0.2-0.3,0.3-0.5,0.5h4.3v1.7h-6.8C30.5,40.1,30.7,39.5,31,38.9z"/>
	</g>
	<g class="st6">
		<path class="st1" d="M32.4,62.7c0,0.4,0.1,0.7,0.2,1c0.2,0.5,0.7,0.7,1.3,0.7c0.4,0,0.7-0.1,1-0.4c0.3-0.3,0.4-0.6,0.4-1.1
			c0-0.7-0.3-1.1-0.8-1.3c-0.3-0.1-0.8-0.2-1.4-0.2v-1.4c0.6,0,1.1-0.1,1.3-0.2c0.4-0.2,0.6-0.6,0.6-1.2c0-0.4-0.1-0.7-0.3-0.9
			c-0.2-0.2-0.5-0.4-0.9-0.4c-0.5,0-0.8,0.1-1,0.4c-0.2,0.3-0.3,0.7-0.3,1.2h-1.8c0-0.5,0.1-1,0.3-1.4c0.2-0.4,0.4-0.7,0.8-1.1
			c0.3-0.2,0.6-0.4,0.9-0.5s0.8-0.2,1.3-0.2c0.9,0,1.7,0.2,2.3,0.7c0.6,0.5,0.9,1.1,0.9,2c0,0.6-0.2,1.1-0.5,1.5
			c-0.2,0.2-0.4,0.4-0.7,0.5c0.2,0,0.4,0.2,0.8,0.5c0.5,0.5,0.7,1.1,0.7,1.9c0,0.8-0.3,1.6-0.9,2.2c-0.6,0.6-1.4,1-2.6,1
			c-1.4,0-2.4-0.5-2.9-1.4c-0.3-0.5-0.4-1.1-0.5-1.9H32.4z"/>
	</g>
	<g class="st6">
		<path class="st1" d="M37.3,90.1h-1.1v2.1h-1.9v-2.1h-3.9v-1.7l3.6-6h2.2v6.2h1.1V90.1z M34.3,88.6v-4.3l-2.5,4.3H34.3z"/>
	</g>
	<g class="st6">
		<path class="st1" d="M32.4,115.5c0.1,0.4,0.2,0.8,0.4,1c0.2,0.2,0.5,0.3,1,0.3c0.5,0,0.8-0.2,1.1-0.5c0.3-0.3,0.4-0.8,0.4-1.3
			c0-0.5-0.1-0.9-0.4-1.3c-0.2-0.3-0.6-0.5-1.1-0.5c-0.2,0-0.4,0-0.6,0.1c-0.3,0.1-0.5,0.3-0.7,0.6l-1.7-0.1l0.7-5.5h5.5v1.7h-4
			l-0.4,2.2c0.3-0.2,0.5-0.3,0.7-0.4c0.3-0.1,0.6-0.2,1-0.2c0.8,0,1.5,0.3,2.1,0.8c0.6,0.6,0.9,1.4,0.9,2.4c0,0.9-0.3,1.7-0.9,2.5
			c-0.6,0.7-1.5,1.1-2.6,1.1c-0.9,0-1.7-0.3-2.3-0.8s-0.9-1.2-1-2.2H32.4z"/>
	</g>
	<g class="st6">
		<path class="st1" d="M35.2,136.6c0-0.2-0.1-0.3-0.2-0.5c-0.2-0.3-0.5-0.5-1-0.5c-0.6,0-1.1,0.4-1.4,1.1c-0.1,0.4-0.2,1-0.3,1.7
			c0.2-0.3,0.5-0.5,0.8-0.6c0.3-0.1,0.7-0.2,1.1-0.2c0.9,0,1.6,0.3,2.2,0.9c0.6,0.6,0.8,1.4,0.8,2.3c0,0.9-0.3,1.7-0.8,2.4
			c-0.6,0.7-1.4,1.1-2.6,1.1c-1.2,0-2.2-0.5-2.8-1.6c-0.5-0.8-0.7-1.9-0.7-3.2c0-0.8,0-1.4,0.1-1.8c0.1-0.8,0.3-1.5,0.7-2.1
			c0.3-0.5,0.7-0.9,1.1-1.2c0.5-0.3,1-0.4,1.6-0.4c0.9,0,1.7,0.2,2.2,0.7s0.9,1.1,0.9,1.9H35.2z M32.8,142.2
			c0.3,0.3,0.7,0.5,1.1,0.5c0.4,0,0.8-0.2,1-0.5c0.2-0.3,0.4-0.7,0.4-1.3c0-0.6-0.1-1-0.4-1.3s-0.6-0.5-1-0.5
			c-0.3,0-0.6,0.1-0.9,0.3c-0.4,0.3-0.6,0.8-0.6,1.4C32.4,141.4,32.6,141.8,32.8,142.2z"/>
	</g>
</g>
</svg>
