<?xml version="1.0" encoding="utf-8"?>
<!-- Generator: Adobe Illustrator 22.1.0, SVG Export Plug-In . SVG Version: 6.00 Build 0)  -->
<svg version="1.1" id="Layer_1" xmlns="http://www.w3.org/2000/svg" xmlns:xlink="http://www.w3.org/1999/xlink" x="0px" y="0px"
	 viewBox="0 0 80 88" style="enable-background:new 0 0 80 88;" xml:space="preserve">
<style type="text/css">
	.st0{clip-path:url(#SVGID_2_);}
	.st1{clip-path:url(#SVGID_4_);fill:#BF2026;}
</style>
<g id="Artwork_3_1_">
	<g>
		<defs>
			<rect id="SVGID_1_" x="0.8" y="1.7" width="78.4" height="84.7"/>
		</defs>
		<clipPath id="SVGID_2_">
			<use xlink:href="#SVGID_1_"  style="overflow:visible;"/>
		</clipPath>
		<g class="st0">
			<defs>
				<rect id="SVGID_3_" x="0.8" y="1.7" width="78.4" height="84.7"/>
			</defs>
			<clipPath id="SVGID_4_">
				<use xlink:href="#SVGID_3_"  style="overflow:visible;"/>
			</clipPath>
			<path class="st1" d="M77.4,45.7l-19-30.2c-1.3-2.1-3.2-3.7-5.5-4.7l-20.3-9c-1.1-0.5-2.3,0.2-2.5,1.4c-0.4,2.9-1.1,7.6-1.3,9.7
				c-0.1,0.6,0.1,1.2,0.6,1.5c0.8,0.8,1.5,1.7,2.1,2.8c1.9,3.8,0.9,8.6-2.4,11.3c-4.7,3.9-11.7,2.3-14.4-3.2
				c-1.8-3.7-0.8-8.3,2.3-11c0.8-0.7,1.7-1.2,2.6-1.6c0.6-0.2,1-0.8,1.1-1.4l0.8-5.8c0.2-1.5-1.4-2.6-2.7-1.8L5.2,12.2
				c-2,1.2-3.2,3.4-3.3,5.7L0.8,43.6c-0.1,2.5,0.6,5,1.9,7.1l19,30.1c3.5,5.5,10.8,7.2,16.3,3.7L73.7,62
				C79.2,58.5,80.8,51.2,77.4,45.7 M43.8,65.7c-0.8,0.3-1.3,1.1-1.3,1.9l0,1.3c0,1.2-1,2.1-2.2,2.1l-2.1,0c-1.2,0-2.1-1-2.1-2.2
				v-0.1c0-1.1-0.8-2-1.9-2.1c-1.5-0.2-2.9-0.5-4-0.9c-1.1-0.3-1.7-1.4-1.4-2.5l0.4-1.9c0.3-1.2,1.6-1.9,2.8-1.5
				c1.7,0.6,3.8,1,5.9,0.9c3.4-0.1,5.1-1.5,5.1-3.6c0-2-1.6-3.1-5.5-4.5c-5.4-1.8-9-4.7-9.1-9.4c-0.1-4.2,2.5-7.7,7.2-9.2
				c0.8-0.3,1.4-1.1,1.4-2l0.1-2.4c0-1.2,1-2.1,2.2-2.1l2.1,0.1c1.2,0,2.1,1,2.1,2.2l0,1.6c0,1,0.7,1.9,1.7,2.1
				c0.6,0.1,1.1,0.2,1.7,0.4c1.1,0.3,1.8,1.5,1.5,2.6l-0.4,1.8c-0.3,1.2-1.5,1.8-2.7,1.5c-1.2-0.4-2.8-0.6-4.7-0.6
				c-3.2,0.1-4.7,1.5-4.6,3.2c0,2.1,1.9,2.9,6.1,4.4c5.8,2,8.5,4.9,8.6,9.5C50.4,60.4,48.3,64,43.8,65.7"/>
		</g>
	</g>
</g>
</svg>
