<?xml version="1.0" encoding="utf-8"?>
<!-- Generator: Adobe Illustrator 22.1.0, SVG Export Plug-In . SVG Version: 6.00 Build 0)  -->
<svg version="1.1" id="Layer_1" xmlns="http://www.w3.org/2000/svg" xmlns:xlink="http://www.w3.org/1999/xlink" x="0px" y="0px"
	 viewBox="0 0 158.2 140" style="enable-background:new 0 0 158.2 140;" xml:space="preserve">
<style type="text/css">
	.st0{fill:#024143;}
	.st1{fill:#C7332A;}
	.st2{clip-path:url(#SVGID_2_);fill:#D72027;}
	.st3{clip-path:url(#SVGID_2_);}
	.st4{clip-path:url(#SVGID_4_);fill:#D72027;}
</style>
<g id="Sl9aqx_1_">
	<g>
		<path class="st0" d="M75.2,88.4c-0.6,0-1,0-1.5,0c0-1.8,0-3.5,0-5.3c0.2,0,0.4-0.1,0.6-0.1c2.7,0,5.4,0,8.2,0
			c0.6,0,0.8,0.1,0.8,0.8c0,3.9,0,7.8,0,11.7c0,0.3-0.2,0.7-0.5,1c-1.5,1.3-3.3,1.8-5.1,2.2c-2.5,0.5-5,0.5-7.6,0.2
			c-4.2-0.5-6.7-3.2-6.7-7.5c-0.1-4.3-0.1-8.7,0-13c0-4.1,2-6.6,6.1-7.3c4.6-0.9,9-0.3,13.1,2.2c0.6,0.4,0.9,0.8,0.9,1.5
			c-0.1,1.7,0,3.5,0,5.2c0,0.6-0.1,0.8-0.7,0.8c-2.2,0-4.5,0-6.7,0c-0.5,0-0.7-0.2-0.7-0.7c0-0.8-0.1-1.7-0.3-2.5
			c-0.1-0.6-0.7-0.9-1.3-0.9c-0.7,0-1.2,0.2-1.5,0.9c-0.2,0.4-0.3,0.9-0.3,1.4c0,4.2,0,8.3,0,12.5c0,1.2,0.7,1.9,1.8,1.8
			c0.7,0,1.3-0.5,1.4-1.2C75.1,90.8,75.1,89.7,75.2,88.4z"/>
		<path class="st0" d="M101.9,67.1c2.4,0,4.6,0,6.9,0c0.1,0.4,0.1,0.7,0.2,1c0.2,0.7,0.5,1.1,1.3,1.1c0.7,0,1.2-0.4,1.3-1.1
			c0.1-1,0.1-2,0.2-3c-1,0.4-1.9,0.8-2.9,1c-1.4,0.4-2.9,0.3-4.3-0.2c-1.9-0.7-2.8-2.2-3.1-4.1c-0.1-0.7-0.1-1.4-0.1-2
			c0-2.5-0.1-4.9,0-7.4c0-1.2,0.2-2.5,0.5-3.7c0.5-1.9,2-3,4-3.2c2.1-0.2,4.1,0.1,6,1.4c0.1-0.4,0.1-0.7,0.2-1c2.7,0,5.4,0,8.1,0
			c0,1.4,0,2.8,0,4.2c0,0.1-0.1,0.3-0.1,0.3c-0.8,0.6-0.8,1.5-0.8,2.4c0,4.5,0,9,0,13.4c0,1.3-0.2,2.7-0.6,4c-0.4,1.6-1.7,2.6-3.2,3
			c-4.5,1.3-8.9,1-13.1-1.2c-0.2-0.1-0.4-0.4-0.4-0.6C101.9,70.1,101.9,68.6,101.9,67.1z M111.7,55.9
			C111.7,55.9,111.7,55.9,111.7,55.9c0-1.3,0-2.6,0-3.9c0-0.5-0.2-0.8-0.7-0.9c-1.2-0.4-2.1,0.1-2.2,1.4c-0.1,2,0,4.1,0,6.1
			c0,0.5,0.2,1,0.4,1.4c0.3,0.6,1.1,0.8,1.9,0.5c0.7-0.2,0.5-0.7,0.5-1.1C111.7,58.3,111.7,57.1,111.7,55.9z"/>
		<path class="st0" d="M37.9,48.7c-2.2,0-4.3,0-6.4,0c-1.8,0-1.8,0-1.8-1.8c0-0.5,0-1.1-0.1-1.6c-0.2-0.9-0.6-1.3-1.5-1.2
			c-0.8,0-1.3,0.4-1.4,1.3c-0.1,0.4-0.1,0.8-0.1,1.3c0,3.8,0,7.5,0,11.3c0,0.4,0,0.8,0.1,1.2c0.1,1,0.6,1.5,1.5,1.5
			c0.9,0,1.5-0.5,1.5-1.5c0.1-1.2,0-2.4,0.1-3.5c0-0.3,0-0.6,0-1c2.8,0,5.4,0,8.2,0c0,0.3,0,0.5,0,0.8c0,2.5,0,5,0,7.5
			c0,0.6-0.2,0.9-0.7,1.2c-2.6,1.7-5.5,2.3-8.5,2.4c-1.9,0.1-3.8-0.1-5.6-0.7c-3-0.9-4.7-3-5-6.2c-0.1-1.1-0.1-2.2-0.1-3.3
			c0-3.5,0-7,0-10.4c0-2.6,0.8-5,3.2-6.4c1.4-0.8,3-1.2,4.6-1.3c4-0.3,7.8,0.5,11.3,2.5c0.5,0.3,0.6,0.6,0.6,1.1
			C37.9,44,37.9,46.3,37.9,48.7z"/>
		<path class="st0" d="M130,79.5c-0.1-1.4,0.4-2.6-0.7-3.6c-0.1-0.1-0.1-0.3-0.2-0.5c0-1.2,0-2.3,0-3.5c0-0.4,0.1-0.6,0.6-0.6
			c2.5,0,5.1,0,7.7,0c0,0.4,0.1,0.8,0.1,1.2c0,6.5,0,12.9,0,19.4c0,0.8,0.1,1.5,0.7,2c0.2,0.2,0.2,0.5,0.2,0.7c0,1.1,0,2.2,0,3.3
			c0,0.2-0.3,0.6-0.5,0.6c-2.5,0-5,0-7.5,0c-0.1,0-0.1-0.1-0.2-0.1c0-0.2-0.1-0.5-0.1-0.8c-0.2,0.1-0.4,0.2-0.5,0.2
			c-1.8,1.1-3.7,1.3-5.7,1c-2.4-0.3-3.8-1.8-4.1-4.4c-0.2-2.1-0.2-4.3-0.2-6.4c0-1.8-0.1-3.6,0.2-5.4c0.4-2.9,2.3-4.4,5.2-4.5
			C126.8,78,128.4,78.4,130,79.5z M130,88.5C130,88.5,130,88.5,130,88.5c0-1.3,0-2.6,0-3.8c0-0.3-0.2-0.8-0.5-0.8
			c-1.2-0.3-2.3-0.2-2.3,1.4c-0.1,2.1,0,4.2,0,6.4c0,0.4,0.2,0.9,0.5,1.3c0.4,0.7,1.2,0.5,1.8,0.4c0.7-0.1,0.5-0.7,0.5-1.1
			C130,90.9,130,89.7,130,88.5z"/>
		<path class="st1" d="M40.7,88.4c0.9,1.6,1.8,3.2,2.7,4.8c0.1,0.1,0.2,0.2,0.3,0.3c0.7-1.6,0.3-3.1-0.7-4.4c1.3,0,2.4,0,3.7,0
			c-1,1.4-1.4,2.8-0.7,4.5c1.5-1.5,2.1-3.5,2.9-5.3c1.9,0.7,3.7,1.3,5.5,2.2c1.3,0.6,2.1,2,2.7,3.2c0.1,0.2,0,0.6-0.2,0.7
			c-3,3.2-6.6,5.4-11.1,5.7c-3.2,0.3-6.2-0.5-8.9-2.1c-0.6-0.3-0.9-0.3-1.3,0.2c-5.6,6.5-16.1,5.6-20.5-1.8c-0.1-0.2-0.1-0.6,0-0.7
			c1.6-2.2,3.7-3.8,6.2-4.9c0.4-0.2,0.7-0.1,1,0.2c1,0.9,2.1,1.8,3.1,2.6c0.4,0.3,0.7,0.3,1.1,0c1.1-0.9,2.2-1.7,3.2-2.7
			c0.3-0.3,0.6-0.5,1-0.2c0.7,0.4,1.4,0.8,2.1,1.1c0.2,0.1,0.6,0.1,0.8-0.1c1-1.1,2.2-1.9,3.7-2.3C38.6,89.1,39.7,88.7,40.7,88.4z"
			/>
		<path class="st0" d="M109.9,97.2c-0.4,0.3-0.7,0.5-1,0.7c-2,1.2-4.2,1.4-6.4,0.7c-1.1-0.3-2-1.1-2.6-2.1c-1.8-3.1-0.8-7.1,2.5-8.6
			c2.1-0.9,4.4-1.6,6.6-2.3c0.9-0.3,0.7-0.9,0.7-1.5c0-0.7-0.3-1.3-1.1-1.4c-0.7-0.1-1.3,0.2-1.5,0.9c-0.2,0.6-0.2,1.2-0.3,1.8
			c-2.3,0-4.5,0-6.9,0c0-1.6,0-3.1,0-4.7c0-0.3,0.5-0.5,0.8-0.7c2.9-1.7,6.1-2.1,9.4-1.9c0.8,0.1,1.6,0.2,2.4,0.4
			c3.3,0.8,4.8,2.8,4.7,6.2c0,2.3,0,4.7,0,7c0,0.8,0.1,1.6,0.7,2.2c0.1,0.1,0.2,0.4,0.2,0.6c0,1.2,0,2.3,0,3.5
			c0,0.4-0.2,0.6-0.6,0.6c-2.3,0-4.6,0-6.9,0c-0.5,0-0.7-0.2-0.6-0.6C110,97.7,110,97.5,109.9,97.2z M109.7,90
			c-0.9,0.4-1.6,0.6-2.2,1c-0.9,0.5-1.1,1.2-0.7,2c0.3,0.6,1,0.8,1.9,0.4c0.4-0.2,1-0.5,1.1-0.9C109.8,91.8,109.7,91,109.7,90z"/>
		<path class="st0" d="M91.9,58.8c2.5,0,4.9,0,7.5,0c0,1.6,0,3.2,0,4.7c0,0.2-0.3,0.5-0.5,0.6c-1.6,1.2-3.5,1.7-5.5,2
			c-2.4,0.4-4.8,0.4-7.2-0.2c-2.8-0.7-4.4-2.2-4.5-5.1c-0.2-3.3-0.2-6.7,0-10c0.2-3.1,1.7-4.5,4.8-5.1c2.9-0.5,5.9-0.6,8.8,0.2
			c2.5,0.7,3.9,2.2,4,4.8c0.1,2.2,0,4.3,0,6.6c-0.2,0-0.5,0.1-0.8,0.1c-2.9,0-5.8,0-8.6,0c-0.6,0-0.9,0.1-0.8,0.8c0.1,0.7,0,1.4,0,2
			c0.1,0.8,0.6,1.3,1.4,1.3c0.8,0,1.2-0.4,1.3-1.3C91.8,59.9,91.9,59.4,91.9,58.8z M92,52.9c-0.1-0.7-0.1-1.3-0.3-1.9
			c-0.3-1-1.8-1.2-2.3-0.4C89.2,51,89.1,51.5,89,52c-0.1,0.7,0.1,1.1,0.9,1C90.6,52.9,91.2,52.9,92,52.9z"/>
		<path class="st0" d="M129.7,57.5c0.1,1.1,0.1,2.1,0.2,3c0.1,0.8,0.6,1.2,1.4,1.1c0.7,0,1.1-0.5,1.3-1.2c0-0.1,0-0.3,0-0.4
			c0.1-1.4,0.1-1.4,1.5-1.4c1.7,0,3.4,0,5,0c0.8,0,1.1,0.1,1,1c-0.1,1.1-0.1,2.2,0,3.3c0,0.6-0.2,1-0.7,1.3c-1.7,1-3.5,1.6-5.5,1.9
			c-2.5,0.4-4.9,0.4-7.3-0.3c-2.8-0.8-4.2-2.6-4.3-5.5c-0.1-2.8-0.1-5.5,0-8.3c0-0.9,0.2-1.9,0.5-2.8c0.7-2.3,2.6-3.1,4.7-3.5
			c2.6-0.4,5.3-0.4,7.9,0.1c3.1,0.6,4.5,2.3,4.7,5.4c0.1,1.9,0,3.7,0.1,5.6c0,0.6-0.3,0.7-0.8,0.7c-2.8,0-5.7,0-8.5,0
			C130.5,57.5,130.2,57.5,129.7,57.5z M129.7,52.9c0.7,0,1.3,0,1.8,0c1.3,0,1.3,0,1.2-1.3c0-0.1,0-0.2,0-0.2
			c-0.1-0.7-0.5-1.2-1.3-1.2c-0.8,0-1.3,0.3-1.4,1C129.8,51.7,129.8,52.3,129.7,52.9z"/>
		<path class="st0" d="M57.9,55.5c0,1.7,0.1,3.4,0,5.1c-0.1,2.8-1.6,4.7-4.3,5.4c-3.1,0.8-6.3,0.7-9.4-0.2c-2.5-0.7-3.8-2.5-3.9-5
			c-0.1-3.3-0.2-6.7,0-10c0.2-3,1.9-4.6,5-5.1c2.8-0.4,5.6-0.4,8.4,0.3c2.6,0.6,4,2.3,4.2,5C58,52.5,57.9,54,57.9,55.5z M50.4,55.9
			c0,0,0.1,0,0.1,0c0-0.4,0-0.9,0-1.3c0-1.1,0-2.1-0.1-3.2c-0.1-0.7-0.5-1.1-1.3-1.1c-0.7,0-1.1,0.3-1.3,1c-0.1,0.4-0.1,0.8-0.1,1.2
			c0,1.5,0,2.9,0,4.4c0,1.1,0,2.3,0.1,3.4c0.1,0.9,0.6,1.4,1.3,1.4c0.8,0,1.3-0.5,1.4-1.4C50.5,58.8,50.4,57.3,50.4,55.9z"/>
		<path class="st0" d="M59.7,65.8c0-1.3,0-2.7,0-4c0-0.2,0.1-0.4,0.2-0.5c0.6-0.6,0.7-1.3,0.7-2.2c0-4.6,0-9.2,0-13.7
			c0-0.8-0.1-1.6-0.7-2.2c-0.1-0.1-0.2-0.4-0.2-0.6c0-1.1,0-2.3,0-3.4c0-0.5,0.2-0.6,0.7-0.6c2.4,0,4.8,0,7.1,0
			c0.7,0,0.7,0.3,0.7,0.8c0,4.2,0,8.3,0,12.5c0,2.5,0,5,0,7.5c0,0.6,0.4,1.2,0.6,1.8c0.1,0.2,0.2,0.4,0.2,0.6c0,1.2,0,2.3,0,3.5
			c0,0.4-0.1,0.6-0.5,0.6c-2.9,0-5.7,0-8.6,0C59.9,65.9,59.8,65.9,59.7,65.8z"/>
		<path class="st0" d="M70.5,66c0-1.4,0-2.8,0-4.1c0-0.2,0.1-0.4,0.2-0.5c0.7-0.6,0.7-1.3,0.7-2.1c0-4.7,0-9.4,0-14.1
			c0-0.6-0.4-1.2-0.6-1.8c-0.1-0.2-0.2-0.4-0.2-0.6c0-1.3,0-2.7,0-4.1c0.3,0,0.6,0,0.9,0c2.2,0,4.4,0,6.6,0c0.7,0,0.9,0.2,0.9,0.9
			c0,6.5,0,12.9,0,19.4c0,0.9,0,1.8,0.8,2.4c0.1,0.1,0.1,0.3,0.2,0.5c0,1.2,0,2.3,0,3.5c0,0.2-0.3,0.5-0.4,0.5
			C76.5,66,73.5,66,70.5,66z"/>
		<path class="st0" d="M97.4,84.9c-0.3,0-0.5,0.1-0.7,0.1c-2.2,0.2-2.9,0.9-3,3.1c-0.1,1.6,0,3.2,0.1,4.8c0,0.3,0.1,0.7,0.3,0.8
			c0.7,0.4,0.6,1,0.6,1.6c0,1.1,0,2.1,0,3.2c-0.2,0-0.4,0.1-0.6,0.1c-2.7,0-5.4,0-8.1,0c-0.7,0-0.9-0.2-0.9-0.9c0.1-0.7,0-1.4,0-2.1
			c0-0.8-0.1-1.5,0.6-2.2c0.3-0.3,0.3-0.9,0.3-1.4c0-2.4,0-4.7,0-7.1c0-0.4-0.1-1-0.4-1.3c-0.4-0.5-0.5-1-0.5-1.6c0-1.1,0-2.2,0-3.4
			c2.7,0,5.3,0,8,0c0,0.3,0.1,0.7,0.1,1c0.3-0.3,0.6-0.5,0.9-0.8C95,78.1,96,78,97,78.1c0.1,0,0.3,0.3,0.3,0.4
			C97.4,80.7,97.4,82.8,97.4,84.9z"/>
		<path class="st0" d="M49,104.2c2.7,0,5.4-0.1,8,0c2.4,0.2,3.6,1.9,3.3,4.4c-0.2,1.2-0.6,2.2-2,2.7c1.7,0.5,1.8,1.6,1.8,2.9
			c0,0.5,0.3,1.1,0.4,1.6c0.1,0.8,0.1,1.6,0.1,2.4c0,0.1-0.4,0.2-0.6,0.2c-1.2,0-2.4,0-3.5,0c-0.5,0-0.7-0.2-0.7-0.7
			c-0.1-1.2-0.1-2.4-0.2-3.6c0-1-0.3-1.3-1.5-1.2c0.1,1-0.2,1.9,0.3,3c0.3,0.7,0.2,1.6,0.2,2.5c-1.9,0-3.6,0-5.5,0
			c0.1-1-0.3-2,0.4-3c0.1-0.2,0.1-0.5,0.1-0.7c0-2.3,0-4.6,0-6.9c0-0.2,0-0.5-0.1-0.6C48.7,106.3,49.1,105.3,49,104.2z M54,107.2
			c0,0.1,0,0.3,0,0.4c0,0.6,0,1.3,0,1.9c0,0.2,0.3,0.4,0.5,0.4c0.9,0,1.3-0.6,1.1-1.7C55.6,107.3,55.1,107,54,107.2z"/>
		<path class="st0" d="M71.6,104.2c1.6,0,3,0,4.5,0c0,1.3,0,2.6,0,3.8c1-0.1,1.8-0.3,2.7-0.3c1.5,0,2.5,0.9,2.6,2.4
			c0.1,1.9,0.1,3.9,0,5.8c-0.1,1.5-1,2.4-2.5,2.6c-2,0.3-4,0.2-5.8-0.6c-0.7-0.3-1-0.7-1-1.5c0.1-2.8,0-5.7,0-8.5
			c0-0.4-0.3-0.9-0.3-1.3C71.8,105.8,71.7,105.1,71.6,104.2z M76.2,113.2c0,0.7,0,1.4,0,2c0,0.4,0.2,0.7,0.6,0.6
			c0.3-0.1,0.9-0.3,0.9-0.5c0.1-1.4,0.1-2.8,0-4.2c0-0.2-0.5-0.5-0.9-0.5c-0.4-0.1-0.6,0.3-0.6,0.7C76.2,112,76.2,112.6,76.2,113.2z
			"/>
		<path class="st1" d="M21,79.8c0.3-1.2,0.5-2.2,0.7-3.1c0.2-0.8,0.9-1.1,1.6-1.2c2-0.4,4-0.3,5.9,0c0.1,0,0.2,0,0.3-0.1
			c-0.3-0.1-0.6-0.3-1-0.3c-1.7-0.1-3.4-0.1-5.1-0.1c-1.4,0.1-2.3,0.9-2.6,2.5c-1.9-1.2-3.6-2.3-5.4-3.4c0-0.1,0-0.1,0-0.2
			c1-0.2,2-0.3,3-0.5c3-0.4,6-0.8,8.9-1.2c0.9-0.1,1.6-0.1,2.4,0.5c1.1,0.8,2.3,1.6,3.5,2.4c0.5,0.3,0.9,2.2,0.5,2.7
			c-0.1,0.2-0.4,0.2-0.6,0.2c-0.6,0.1-1.2,0.2-1.9,0.3c0.1,0.5,0.2,1,0.3,1.6C28,79.1,24.6,79,21,79.8z"/>
		<path class="st1" d="M39.8,77c0.3-1.1,0.4-2.1,0.7-3c0.2-0.5,0.7-1,1.2-1.1c1.8-0.6,3.6-0.4,5.4-0.3c0.3,0,0.6,0.1,0.9,0.2
			c0-0.1,0-0.1,0.1-0.2c-0.5-0.1-1.1-0.4-1.6-0.4c-1.5,0-2.9,0-4.4,0.1c-1.2,0.1-2.1,0.7-2.4,2c0,0.1-0.1,0.2-0.2,0.5
			c-0.9-0.6-1.8-1.2-2.7-1.8c-0.9-0.6-1.7-1.1-2.6-1.9c1.1-0.2,2.3-0.3,3.4-0.5c2.8-0.4,5.7-0.8,8.5-1.2c0.8-0.1,1.5,0,2.1,0.5
			c1.1,0.8,2.2,1.5,3.3,2.2c0.5,0.3,0.8,0.7,0.7,1.4c0,0.1,0,0.3,0,0.4c0,1.2,0,1.2-1.2,1.3c-0.4,0-0.8,0.1-1.3,0.2
			c0.1,0.5,0.1,1,0.2,1.5C46.6,76.3,43.3,76.2,39.8,77z"/>
		<path class="st0" d="M92.4,118.4c-2.1,0.4-4,0.2-4.3-0.4c-0.7,0.2-1.3,0.5-2,0.7c-1.7,0.3-3.1-0.4-3.5-1.8
			c-0.6-1.9,0.1-3.4,1.8-4.1c1-0.4,2-0.7,3-1.1c0.2-0.1,0.5-0.4,0.6-0.6c0.1-0.4-0.1-0.9-0.6-1c-0.5,0-0.8,0.3-0.8,0.8
			c0,0.6-0.3,0.7-0.8,0.7c-0.7,0-1.5,0-2.2,0c-0.6,0-0.9-0.1-0.8-0.7c0-0.2,0-0.4,0-0.5c0-1.5,0-1.5,1.4-2c1.8-0.7,3.7-0.8,5.6-0.2
			c1.5,0.5,2.1,1.4,2.1,2.9c0,1,0,2,0,3.1c0,0.7,0.3,1.3,0.4,2C92.5,116.8,92.4,117.6,92.4,118.4z M88,114c-0.5,0.2-0.9,0.4-1.3,0.7
			c-0.2,0.2-0.3,0.6-0.2,0.8c0.1,0.2,0.5,0.3,0.8,0.3C88.1,115.7,88.2,115.4,88,114z"/>
		<path class="st0" d="M67.2,114.7c1.2,0,2.5,0,3.8,0c0,0.8,0,1.6,0,2.4c0,0.2-0.3,0.5-0.5,0.6c-2.1,1.1-4.3,1.3-6.6,0.7
			c-1.3-0.4-2-1.3-2.1-2.6c0-1.7-0.1-3.5,0-5.2c0.1-1.5,0.8-2.4,2.3-2.7c1.7-0.3,3.3-0.4,5,0.1c1.1,0.3,1.8,1,1.9,2.2
			c0.1,1.2,0,2.5,0,3.9c-1.4,0-2.8,0-4.2,0c-0.4,0-1,0.1-1.1,0.2c-0.1,0.5,0,1.1,0.1,1.6c0,0.2,0.4,0.3,0.6,0.3
			c0.2,0,0.4-0.2,0.5-0.4C67,115.5,67.1,115.2,67.2,114.7z M65.4,111.4c0.1,0.1,0.1,0.2,0.2,0.2c0.5-0.1,0.9-0.1,1.4-0.2
			c-0.1-0.4,0-0.8-0.2-1.1c-0.1-0.2-0.6-0.3-0.7-0.2C65.8,110.6,65.6,111,65.4,111.4z"/>
		<path class="st0" d="M99.8,113.3c0-1-0.1-1.9,0-2.9c0.1-1.4,0.9-2.3,2.3-2.4c1.5-0.1,3.1-0.1,4.7,0.1c1.3,0.1,2.1,1.2,2.2,2.4
			c0.1,1,0,2,0.1,3.1c0,0.4-0.2,0.6-0.6,0.6c-1.4,0-2.7,0-4.1,0c-0.4,0-0.8,0-0.7,0.5c0.1,0.6-0.2,1.4,0.6,1.6
			c0.5,0.1,0.8-0.3,0.8-0.8c0-0.6,0.2-0.8,0.8-0.7c0.8,0,1.6,0.1,2.4,0c0.6,0,0.8,0.2,0.7,0.8c0,0.1,0,0.3,0,0.4
			c0,1.8,0,1.8-1.7,2.4c-1.8,0.6-3.7,0.7-5.6,0.1c-1.4-0.4-2-1.4-2.1-2.8C99.7,114.8,99.7,114,99.8,113.3
			C99.8,113.3,99.8,113.3,99.8,113.3z M104.5,111.8c0.2-0.2,0.5-0.4,0.6-0.7c0.1-0.5-0.1-1-0.7-1c-0.6,0-0.7,0.4-0.7,0.9
			C103.6,111.7,103.9,111.7,104.5,111.8z"/>
		<path class="st1" d="M33.6,91.3c-0.8-0.4-1.4-0.8-2.1-1.1c-0.7-0.4-1.5-0.9-2.2,0.2c-0.2-0.3-0.3-0.5-0.4-0.7
			c-0.9,0.4-1.8,1-2.6,1c-0.9,0-1.8-0.6-2.7-1c-0.1,0.1-0.2,0.4-0.4,0.7c-0.8-1.1-1.6-0.4-2.4,0c-0.6,0.3-1.1,0.6-1.9,1
			c1.3-2.2,1.4-4.5,1.4-6.9c0-1.1,0.1-2.2,0.3-3.3c0-0.3,0.4-0.7,0.7-0.7c3.2-0.7,6.5-0.7,9.7,0c0.5,0.1,0.8,0.3,0.8,0.9
			c0.1,1.5,0.2,3.1,0.2,4.6C32.2,87.7,32.6,89.5,33.6,91.3z M27.7,81.3c-1.3,1.1-3,1.4-4.7,1.5c-0.2,0-0.5,0.4-0.5,0.6
			c-0.3,2.3,0.1,4.6,2.4,6.1c1.1,0.7,1.7,0.7,2.8,0c2.4-1.6,2.6-3.9,2.3-6.3c0-0.2-0.2-0.4-0.4-0.5C29,82.2,28.4,81.8,27.7,81.3z"/>
		<path class="st0" d="M97.5,104.8c0,1.1,0,2.1,0,3c1.3,0.3,1.3,0.3,1.3,1.7c0,0.7,0,0.7-1.3,1c0,1.5,0,3.1,0,4.7
			c0,0.3,0.4,0.7,0.6,0.8c0.5,0.2,0.6,0.4,0.6,0.9c-0.1,1.8,0.4,1.7-1.7,1.8c-0.3,0-0.5,0-0.8,0c-1.9,0-2.7-0.9-2.8-2.8
			c0-1.6,0-3.1,0-4.7c0-0.3-0.2-0.6-0.3-0.9c-0.3-0.4-0.1-2,0.1-2.4c0.2-0.3,0.2-0.8,0.2-1.2c0-0.6,0.2-0.9,0.8-1
			C95.4,105.4,96.4,105.1,97.5,104.8z"/>
		<path class="st1" d="M45,76.9c1.5,0.2,3.1,0.4,4.6,0.6c0.2,0,0.6,0.2,0.6,0.4c0.1,1.4,0.9,2.7,0.4,4.2c-0.2,0.6-0.5,1.1-0.7,1.6
			c-0.1,0.3-0.3,0.5-0.4,0.8c-0.7,1.5-1.7,2.6-3.3,3.3c-1.2,0.5-2.3,0.2-3.2-0.5c-1.1-0.7-1.9-1.7-2.4-3c-0.2-0.4-0.5-0.7-0.7-1.1
			c-0.6-1.2-0.7-2.4-0.4-3.7c0.1-0.4,0.2-0.8,0.2-1.1c0-0.5,0.2-0.8,0.7-0.8C41.8,77.3,43.4,77.1,45,76.9z M48.7,79.8
			c0-0.3-0.1-0.6-0.1-0.9c-0.1-1-0.2-1.1-1.2-0.9c-1.6,0.3-3.2,0.6-4.9,0.8c-0.7,0.1-1.5-0.1-1.3,1c-0.3-0.2-0.6-0.3-0.9-0.5
			c-0.1,0.4-0.3,0.7-0.4,1.1c-0.1,0.3-0.1,0.6,0,0.9c0.4,1.8,1.3,3.3,2.4,4.7c1.5,1.7,3.3,1.8,4.9,0.2c0.7-0.7,1.1-1.6,1.6-2.4
			c0.1-0.2,0.1-0.4,0.2-0.5c1-0.9,1-2,0.9-3.2c0-0.3-0.3-0.6-0.4-0.9C49.3,79.5,49,79.6,48.7,79.8z"/>
		<path class="st1" d="M52.8,72.7c0.9,0.6,1.7,1.3,2.7,2c-0.6,0.1-1.2,0.2-1.7,0.2c-0.5,0-0.7,0.3-0.7,0.8c0.2,1.6,0.3,3.3,0.4,4.9
			c0,0.5,0,0.8-0.6,0.8c-0.5,0-0.8-0.2-0.7-0.7C52.7,78,52.9,75.4,52.8,72.7C52.8,72.7,52.8,72.6,52.8,72.7z"/>
		<path class="st1" d="M34.2,75.4c0.8,0.6,1.7,1.3,2.7,2c-0.7,0.1-1.1,0.2-1.6,0.2c-0.6,0-0.8,0.3-0.8,0.8c0.2,1.6,0.3,3.2,0.5,4.8
			c0.1,0.7-0.3,1-0.9,0.8c-0.2-0.1-0.4-0.3-0.4-0.5c0.1-2.7,0.3-5.4,0.5-8C34.2,75.5,34.2,75.4,34.2,75.4z"/>
		<path class="st0" d="M6.4,94.3c0,0.4,0,0.7,0,1.1c0,0.1-0.2,0.2-0.3,0.4c-0.1-0.1-0.3-0.2-0.3-0.4c0-0.7,0-1.5,0-2.2
			c0-0.1,0.2-0.2,0.3-0.4c0.1,0.1,0.3,0.3,0.3,0.4C6.4,93.6,6.4,93.9,6.4,94.3z"/>
		<path class="st0" d="M5.7,89.8c0-0.3,0-0.6,0-0.9c0-0.2,0.2-0.3,0.3-0.5c0.1,0.1,0.3,0.3,0.3,0.4c0,0.7,0,1.4,0,2.1
			c0,0.1-0.2,0.3-0.3,0.4c-0.1-0.1-0.3-0.3-0.3-0.4C5.7,90.6,5.7,90.2,5.7,89.8C5.7,89.8,5.7,89.8,5.7,89.8z"/>
		<path class="st0" d="M109.4,127.3c-0.2,0.1-0.4,0.2-0.7,0.3c-0.6,0-1.3,0-1.9,0c-0.2,0-0.3-0.2-0.5-0.3c0.1-0.1,0.2-0.3,0.3-0.3
			c0.9,0,1.8,0,2.7,0C109.4,127,109.4,127.1,109.4,127.3z"/>
		<path class="st0" d="M134,106.6c0.4,0,0.8,0,1.2,0c0.1,0,0.2,0.2,0.3,0.3c-0.1,0.1-0.2,0.3-0.4,0.3c-0.7,0-1.5,0-2.2-0.1
			c-0.1,0-0.3-0.2-0.4-0.4c0.1-0.1,0.3-0.2,0.4-0.2C133.3,106.5,133.6,106.5,134,106.6C134,106.5,134,106.6,134,106.6z"/>
		<path class="st0" d="M6.4,43.8c0,0.3,0,0.7,0,1c0,0.1-0.2,0.3-0.3,0.4C6,45.1,5.7,45,5.7,44.9c0-0.7,0-1.4,0-2.1
			c0-0.1,0.2-0.3,0.3-0.4c0.1,0.1,0.3,0.3,0.3,0.4C6.4,43.2,6.4,43.5,6.4,43.8C6.4,43.8,6.4,43.8,6.4,43.8z"/>
		<path class="st0" d="M6.3,48.2c0,0.4,0,0.7,0,1.1c0,0.1-0.2,0.3-0.3,0.3c-0.1,0-0.4-0.2-0.4-0.3c0-0.7,0-1.5,0-2.2
			c0-0.1,0.2-0.2,0.3-0.4c0.1,0.1,0.3,0.3,0.3,0.4C6.4,47.5,6.4,47.9,6.3,48.2C6.4,48.2,6.3,48.2,6.3,48.2z"/>
		<path class="st0" d="M152.3,52.5c0,0.3,0,0.7,0,1c0,0.2-0.2,0.3-0.3,0.4c-0.1-0.1-0.3-0.2-0.3-0.4c0-0.7,0-1.5,0-2.2
			c0-0.1,0.2-0.2,0.3-0.3c0.1,0.1,0.3,0.2,0.3,0.3C152.3,51.7,152.3,52.1,152.3,52.5C152.3,52.5,152.3,52.5,152.3,52.5z"/>
		<path class="st0" d="M94.9,126.7c-0.3,0-0.7,0-1,0c-0.2,0-0.3-0.2-0.5-0.3c0.1-0.1,0.3-0.3,0.4-0.3c0.7,0,1.4,0,2.1,0.1
			c0.1,0,0.3,0.2,0.4,0.4c-0.1,0.1-0.3,0.2-0.4,0.2C95.5,126.7,95.2,126.7,94.9,126.7C94.9,126.7,94.9,126.7,94.9,126.7z"/>
		<path class="st0" d="M24.2,31.5c-0.6,0-1,0-1.3-0.1c-0.1,0-0.2-0.2-0.3-0.3c0.1-0.1,0.2-0.3,0.4-0.3c0.7,0,1.4,0,2.2,0
			c0.1,0,0.3,0.2,0.4,0.4c-0.1,0.1-0.3,0.3-0.4,0.3C24.7,31.5,24.3,31.5,24.2,31.5z"/>
		<path class="st0" d="M25.6,106.9c-0.2,0.1-0.3,0.2-0.5,0.3c-0.7,0.1-1.4,0.1-2,0.1c-0.1,0-0.3-0.1-0.4-0.3c0-0.1,0.1-0.3,0.2-0.3
			c0.9,0,1.8,0,2.7,0C25.6,106.7,25.6,106.8,25.6,106.9z"/>
		<path class="st0" d="M152,83.9c0.2,0.3,0.3,0.5,0.3,0.6c0,0.6,0,1.3,0,1.9c0,0.2-0.2,0.3-0.3,0.5c-0.1-0.2-0.3-0.3-0.3-0.5
			C151.7,85.6,151.4,84.8,152,83.9z"/>
		<path class="st0" d="M132.3,31c0.3-0.1,0.6-0.2,1-0.2c0.5,0,1.1,0,1.6,0c0.1,0,0.3,0.1,0.3,0.2c0,0-0.1,0.3-0.2,0.3
			c-0.9,0.1-1.8,0.1-2.7,0.2C132.3,31.4,132.3,31.2,132.3,31z"/>
		<path class="st0" d="M20.4,30.8c0,0,0.2,0,0.3,0c0.1,0.1,0.2,0.2,0.3,0.3c-0.1,0.1-0.2,0.3-0.3,0.3c-0.7,0.1-1.5,0.1-2.2,0.2
			c-0.1,0-0.3-0.2-0.4-0.3c0.1-0.1,0.3-0.3,0.4-0.3C19.1,30.9,19.7,30.9,20.4,30.8z"/>
		<path class="st0" d="M100.2,127c-0.8-0.1-1.3-0.1-1.8-0.2c-0.2,0-0.4-0.3-0.6-0.4c0.2-0.1,0.4-0.2,0.7-0.2c0.5,0,1,0,1.6,0.1
			c0.3,0,0.5,0.2,0.7,0.4C100.5,126.9,100.2,127,100.2,127z"/>
		<path class="st0" d="M47.7,127.5c-0.3,0-0.7,0-1-0.1c-0.1,0-0.2-0.2-0.3-0.4c0.1-0.1,0.2-0.2,0.3-0.2c0.7,0,1.4,0,2,0.1
			c0.1,0,0.2,0.2,0.3,0.3c-0.1,0.1-0.2,0.3-0.4,0.3C48.4,127.5,48.1,127.5,47.7,127.5z"/>
		<path class="st0" d="M137.2,107.2c0,0-0.2-0.2-0.4-0.3c0.2-0.1,0.3-0.4,0.5-0.4c0.6-0.1,1.2-0.1,1.8-0.1c0.2,0,0.4,0.2,0.6,0.3
			c-0.2,0.1-0.4,0.3-0.6,0.4C138.6,107.1,138,107.2,137.2,107.2z"/>
		<path class="st0" d="M5.6,97.7c0.1-0.1,0.2-0.3,0.4-0.5c0.1,0.2,0.3,0.4,0.3,0.7c0.1,0.6,0.2,1.1,0.2,1.7c0,0.2-0.2,0.4-0.3,0.5
			c-0.1-0.1-0.3-0.3-0.3-0.5C5.8,99,5.7,98.4,5.6,97.7z"/>
		<path class="st0" d="M58.9,11.8c-0.4,0-0.9-0.1-1.3-0.1c-0.1,0-0.2-0.2-0.3-0.3c0.1-0.1,0.3-0.3,0.4-0.3c0.7,0,1.4,0.1,2.1,0.2
			c0.2,0,0.3,0.2,0.4,0.3c-0.2,0.1-0.3,0.2-0.5,0.2C59.4,11.8,59.2,11.7,58.9,11.8C58.9,11.7,58.9,11.7,58.9,11.8z"/>
		<path class="st0" d="M151.8,55.2c0.4,0.2,0.6,0.3,0.6,0.4c0.1,0.8,0.2,1.6,0.2,2.5c0,0.1-0.2,0.3-0.2,0.3c-0.1,0-0.4-0.1-0.4-0.2
			C151.9,57.2,151.9,56.3,151.8,55.2z"/>
		<path class="st0" d="M5.7,39.9c0.1-0.4,0.1-1,0.3-1.5c0-0.1,0.2-0.2,0.4-0.3c0.1,0.1,0.2,0.3,0.2,0.4c0,0.7-0.1,1.5-0.2,2.2
			c0,0.1-0.2,0.3-0.3,0.3c-0.1,0-0.3-0.2-0.4-0.3C5.6,40.5,5.7,40.3,5.7,39.9z"/>
		<path class="st0" d="M130.4,106.9c-0.7-0.1-1.2-0.1-1.7-0.2c-0.2,0-0.4-0.2-0.6-0.4c0.2-0.1,0.5-0.3,0.7-0.3c0.5,0,0.9,0,1.4,0.2
			c0.3,0.1,0.5,0.3,0.8,0.4C130.8,106.8,130.5,106.9,130.4,106.9z"/>
		<path class="st0" d="M138.3,31.6c-0.4,0-0.8,0-1.2-0.1c-0.1,0-0.2-0.2-0.3-0.4c0.1-0.1,0.2-0.2,0.4-0.2c0.8,0,1.6,0.1,2.3,0.2
			c0.1,0,0.2,0.2,0.3,0.3c-0.1,0.1-0.2,0.3-0.4,0.3C139,31.6,138.6,31.6,138.3,31.6C138.3,31.5,138.3,31.5,138.3,31.6z"/>
		<path class="st0" d="M27.4,106.9c-0.1,0-0.2-0.1-0.4-0.3c0.1-0.1,0.3-0.4,0.4-0.4c0.6-0.1,1.3-0.2,1.9-0.3c0.2,0,0.3,0.1,0.5,0.2
			c-0.1,0.1-0.2,0.4-0.4,0.4C28.9,106.7,28.2,106.8,27.4,106.9z"/>
		<path class="st0" d="M103.1,126.6c0.6,0.1,1,0.1,1.4,0.2c0.1,0,0.3,0.3,0.4,0.4c-0.1,0.1-0.3,0.2-0.4,0.2c-0.7,0-1.4-0.1-2.1-0.2
			c-0.1,0-0.3-0.2-0.4-0.3c0.1-0.1,0.3-0.3,0.4-0.3C102.8,126.6,103.1,126.6,103.1,126.6z"/>
		<path class="st0" d="M153.4,62.3c-0.1,0.1-0.1,0.3-0.3,0.3c-0.1,0-0.4-0.1-0.4-0.3c-0.2-0.7-0.3-1.4-0.5-2.1
			c0-0.1,0.1-0.3,0.2-0.4c0.1,0.1,0.4,0.2,0.4,0.3C153.1,60.7,153.2,61.4,153.4,62.3z"/>
		<path class="st0" d="M30.7,22.8c-0.1,0.9-0.2,1.5-0.3,2.1c0,0.2-0.2,0.3-0.4,0.4c-0.1-0.2-0.3-0.3-0.3-0.5
			c0.1-0.7,0.2-1.4,0.3-2.1c0-0.1,0.3-0.2,0.4-0.3C30.6,22.6,30.7,22.8,30.7,22.8z"/>
		<path class="st0" d="M14.5,105.7c0.7,0.1,1.4,0.3,2,0.4c0.2,0,0.3,0.3,0.4,0.4c-0.2,0.1-0.4,0.2-0.5,0.2c-0.6-0.1-1.3-0.2-1.9-0.4
			c-0.2,0-0.3-0.3-0.5-0.4C14.2,105.9,14.3,105.8,14.5,105.7z"/>
		<path class="st0" d="M12.6,32.7c-0.1,0.1-0.3,0.2-0.4,0.2c-0.6,0.3-1.3,0.6-1.9,0.8c-0.1,0.1-0.3-0.1-0.5-0.1
			c0.1-0.2,0.1-0.4,0.2-0.5c0.7-0.3,1.4-0.6,2.1-0.9c0.1,0,0.3,0.1,0.5,0.1C12.6,32.6,12.6,32.6,12.6,32.7z"/>
		<path class="st0" d="M14.2,32.3c-0.1-0.1-0.2-0.2-0.4-0.3c0.1-0.1,0.2-0.3,0.4-0.3c0.6-0.2,1.3-0.3,1.9-0.4c0.2,0,0.4,0.2,0.6,0.3
			c-0.2,0.1-0.3,0.4-0.5,0.4C15.6,32.1,15,32.2,14.2,32.3z"/>
		<path class="st0" d="M127.8,111c-0.1,0.1-0.1,0.3-0.2,0.3c-0.1,0-0.4,0-0.4-0.1c-0.3-0.7-0.6-1.5-0.9-2.2c0-0.1,0.1-0.3,0.2-0.3
			c0.1,0,0.3,0.1,0.3,0.1C127.2,109.5,127.5,110.2,127.8,111z"/>
		<path class="st0" d="M152.7,80.3c-0.1,0.7-0.1,1.3-0.2,1.8c0,0.2-0.2,0.3-0.3,0.5c-0.1-0.2-0.3-0.4-0.3-0.5c0-0.5,0-1.1,0.1-1.6
			c0-0.3,0.3-0.5,0.4-0.7C152.5,79.9,152.6,80.2,152.7,80.3z"/>
		<path class="st0" d="M5.2,80.8c0.1-0.4,0.2-0.7,0.4-1.1C5.7,80,5.9,80.4,6,80.8c0.1,0.5,0.1,1,0.1,1.5c0,0.1-0.2,0.3-0.3,0.4
			c-0.1-0.1-0.3-0.2-0.3-0.4C5.4,81.8,5.4,81.3,5.2,80.8C5.3,80.8,5.3,80.8,5.2,80.8z"/>
		<path class="st0" d="M127.8,23c0.5,0.9,0.6,1.8,0.4,2.6c0,0.1-0.4,0.2-0.5,0.1C127.5,25.6,127.5,23.5,127.8,23z"/>
		<path class="st0" d="M44.2,10.9c0.5-0.1,0.9-0.2,1.4-0.2c0.4-0.1,0.8-0.1,1.2-0.1c0.1,0,0.3,0.1,0.4,0.3c0,0-0.1,0.2-0.2,0.3
			C46.6,11.4,44.6,11.4,44.2,10.9z"/>
		<path class="st0" d="M30.6,26.5c0.1,0.2,0.1,0.3,0.2,0.5c0.3,0.6,0.5,1.2,0.8,1.9c0.1,0.2-0.1,0.4-0.1,0.6
			c-0.2-0.1-0.4-0.1-0.5-0.3c-0.3-0.6-0.6-1.3-0.9-1.9c-0.1-0.2,0-0.4,0.1-0.6C30.4,26.6,30.5,26.5,30.6,26.5z"/>
		<path class="st0" d="M50,10.5c0.4,0,0.7,0,1.1,0c0.2,0,0.3,0.2,0.4,0.3c-0.1,0.1-0.3,0.3-0.4,0.3c-0.7,0-1.5,0-2.2-0.1
			c-0.1,0-0.2-0.2-0.3-0.3c0.1-0.1,0.2-0.3,0.4-0.3C49.3,10.5,49.7,10.5,50,10.5C50,10.5,50,10.5,50,10.5z"/>
		<path class="st0" d="M27.3,31c0.8,0.1,1.4,0.1,2.1,0.3c0.1,0,0.3,0.3,0.4,0.4c-0.1,0.1-0.3,0.3-0.4,0.2c-0.7,0-1.3-0.1-2-0.2
			c-0.2,0-0.3-0.2-0.4-0.4C27,31.2,27.2,31.1,27.3,31z"/>
		<path class="st0" d="M106.2,10.5c0.2,0,0.4,0,0.5,0c0.2,0.1,0.5,0.2,0.7,0.3c-0.2,0.1-0.4,0.3-0.7,0.3c-0.5,0.1-1,0.1-1.5,0
			c-0.2,0-0.4-0.2-0.6-0.3c0.2-0.1,0.4-0.3,0.6-0.4C105.6,10.5,105.9,10.6,106.2,10.5C106.2,10.6,106.2,10.6,106.2,10.5z"/>
		<path class="st0" d="M141.5,106.8c-0.1-0.1-0.2-0.2-0.4-0.3c0.1-0.1,0.2-0.3,0.3-0.4c0.7-0.2,1.4-0.3,2.1-0.4
			c0.1,0,0.3,0.1,0.5,0.2c-0.1,0.1-0.2,0.4-0.4,0.4C143,106.5,142.3,106.6,141.5,106.8z"/>
		<path class="st0" d="M128.3,112.8c-0.2,0.8-0.3,1.6-0.5,2.4c0,0.1-0.2,0.2-0.4,0.3c-0.1-0.1-0.2-0.3-0.2-0.4
			c0.1-0.7,0.2-1.4,0.4-2.1c0-0.2,0.3-0.2,0.5-0.4C128.2,112.7,128.3,112.8,128.3,112.8z"/>
		<path class="st0" d="M40.5,12.4c-0.1-0.1-0.3-0.2-0.4-0.3c0.1-0.1,0.2-0.3,0.3-0.4c0.7-0.2,1.4-0.4,2-0.5c0.1,0,0.3,0.1,0.4,0.2
			c-0.1,0.1-0.2,0.4-0.3,0.4C41.9,12,41.3,12.2,40.5,12.4z"/>
		<path class="st0" d="M33.3,17.5c0-0.1-0.2-0.3-0.1-0.4c0.5-0.7,1.1-1.3,1.7-1.9c0.1-0.1,0.3,0,0.3,0c0.1,0.1,0.2,0.3,0.1,0.3
			c-0.6,0.7-1.2,1.3-1.8,1.9C33.5,17.5,33.5,17.5,33.3,17.5z"/>
		<path class="st0" d="M89.6,127.3c-0.1-0.1-0.3-0.2-0.4-0.3c0.1-0.1,0.2-0.4,0.4-0.4c0.7-0.2,1.3-0.3,2-0.4c0.2,0,0.3,0.1,0.5,0.2
			c-0.1,0.1-0.2,0.4-0.3,0.4C91,127,90.3,127.1,89.6,127.3z"/>
		<path class="st0" d="M5.4,78.3c-0.1-0.1-0.3-0.1-0.3-0.2c-0.2-0.8-0.3-1.5-0.5-2.3c0-0.1,0.1-0.3,0.2-0.4c0,0,0.3,0.1,0.3,0.1
			c0.2,0.9,0.4,1.8,0.6,2.7C5.6,78.3,5.5,78.3,5.4,78.3z"/>
		<path class="st0" d="M73.2,9.7c-1,0.4-1.8,0.7-2.6,1c-0.1,0-0.3-0.1-0.4-0.2c0,0,0-0.3,0.1-0.3c0.8-0.3,1.5-0.7,2.3-0.9
			C72.7,9.3,72.9,9.5,73.2,9.7z"/>
		<path class="st0" d="M76.9,7.5c-0.2,0.2-0.2,0.3-0.3,0.3c-0.6,0.4-1.3,0.8-1.9,1.2c-0.1,0.1-0.3,0-0.4-0.1c0-0.2,0-0.4,0.1-0.5
			c0.6-0.4,1.3-0.8,1.9-1.1C76.4,7.2,76.6,7.4,76.9,7.5z"/>
		<path class="st0" d="M32.6,18.9c-0.4,0.7-0.9,1.5-1.3,2.2c0,0.1-0.3,0.1-0.3,0.1c-0.1-0.1-0.2-0.3-0.1-0.4c0.3-0.7,0.7-1.3,1.1-2
			c0.1-0.1,0.3-0.1,0.4-0.1C32.5,18.6,32.5,18.7,32.6,18.9z"/>
		<path class="st0" d="M124.8,120.9c-0.1,0.1-0.1,0.3-0.2,0.4c-0.4,0.5-0.9,1-1.4,1.5c-0.1,0.1-0.3,0-0.5,0.1c0-0.2,0-0.4,0.1-0.5
			c0.4-0.5,0.9-1,1.4-1.5c0.1-0.1,0.3-0.1,0.5-0.2C124.6,120.6,124.7,120.8,124.8,120.9z"/>
		<path class="st0" d="M148.1,104.4c-0.1,0.2-0.1,0.3-0.1,0.3c-0.8,0.4-1.6,0.7-2.4,1c0,0-0.2-0.2-0.2-0.2c0-0.1,0.1-0.3,0.2-0.3
			c0.7-0.3,1.4-0.6,2.1-0.9C147.8,104.2,148,104.3,148.1,104.4z"/>
		<path class="st0" d="M121.7,123.8c0,0.1,0,0.2-0.1,0.2c-0.7,0.5-1.5,0.9-2.2,1.4c-0.1-0.2-0.2-0.5-0.2-0.5
			c0.7-0.5,1.4-0.9,2.1-1.3C121.4,123.6,121.6,123.7,121.7,123.8z"/>
		<path class="st0" d="M8.8,34.6C8.6,35,8.3,35.4,8,35.7c-0.3,0.3-0.5,0.6-0.8,0.9c-0.1,0.1-0.3,0.1-0.4,0.1c-0.1,0-0.1-0.2-0.1-0.3
			c0-0.3,1.6-2,2-2C8.7,34.5,8.8,34.5,8.8,34.6z"/>
		<path class="st0" d="M131,31.4c-0.2,0.2-0.3,0.4-0.4,0.4c-0.7,0.1-1.4,0.2-2.1,0.3c-0.1,0-0.3-0.1-0.4-0.2
			c0.1-0.1,0.1-0.2,0.2-0.3C128.5,31.3,130.6,31.2,131,31.4z"/>
		<path class="st0" d="M6,56.8C6,57.1,6,57.5,5.9,58c0,0.1-0.2,0.3-0.3,0.4c-0.1-0.1-0.3-0.3-0.3-0.4c0-0.7,0.1-1.4,0.2-2.1
			c0-0.1,0.2-0.2,0.3-0.4c0.1,0.1,0.2,0.3,0.3,0.4C6.1,56.1,6.1,56.4,6,56.8z"/>
		<path class="st0" d="M68.8,11.3c-0.9,0.2-1.9,0.3-2.9,0.5c0.3-0.6,1.5-1.1,2.5-1.1c0.2,0,0.4,0.2,0.5,0.3
			C68.9,11.2,68.9,11.2,68.8,11.3z"/>
		<path class="st0" d="M54.8,11.4c-0.5,0-0.9-0.1-1.4-0.1c-0.2,0-0.3-0.2-0.4-0.4c0.1-0.1,0.3-0.2,0.4-0.2c0.7,0,1.3,0,1.9,0.1
			c0.2,0,0.3,0.2,0.5,0.4c-0.2,0.1-0.3,0.2-0.5,0.2C55.1,11.5,54.9,11.4,54.8,11.4z"/>
		<path class="st0" d="M154.9,66.3c-0.1,0.1-0.2,0.3-0.3,0.3c-0.1,0-0.3-0.1-0.3-0.1c-0.3-0.7-0.7-1.4-1-2.1c0-0.1,0.1-0.3,0.2-0.4
			c0.1,0,0.3,0,0.4,0.1C154.3,64.8,154.6,65.6,154.9,66.3z"/>
		<path class="st0" d="M2.3,70.2c-0.3-0.3-0.6-0.6-0.8-1c-0.1-0.1,0.1-0.4,0.1-0.7c0-0.1,0.1-0.2,0.2-0.2C2,68.2,2.2,68,2.5,67.9
			c0,0.2-0.1,0.5-0.1,0.7c0,0.3,0.1,0.6,0.1,0.9c0,0.2,0,0.4,0,0.6C2.4,70.2,2.3,70.2,2.3,70.2z"/>
		<path class="st0" d="M152.3,77.9c0.2-0.8,0.3-1.5,0.5-2.1c0-0.1,0.3-0.2,0.4-0.3c0.1,0.2,0.2,0.3,0.2,0.5c-0.1,0.7-0.2,1.3-0.4,2
			c0,0.2-0.3,0.3-0.4,0.4C152.5,78.1,152.3,78,152.3,77.9z"/>
		<path class="st0" d="M110.1,11.2c-0.2,0-0.5,0-0.9-0.1c-0.1,0-0.2-0.2-0.4-0.3c0.1-0.1,0.3-0.3,0.4-0.3c0.6,0,1.1,0,1.7,0
			c0.2,0,0.4,0.2,0.5,0.3c-0.2,0.1-0.4,0.3-0.6,0.3C110.7,11.3,110.5,11.2,110.1,11.2z"/>
		<path class="st0" d="M111.8,127.5c-0.3-0.1-0.7-0.3-1-0.4c0.4-0.1,0.7-0.3,1.1-0.4c0.4-0.1,0.9-0.1,1.3-0.1c0.2,0,0.3,0.1,0.5,0.2
			c-0.2,0.1-0.3,0.3-0.5,0.4c-0.4,0.1-0.9,0.1-1.3,0.2C111.8,127.4,111.8,127.5,111.8,127.5z"/>
		<path class="st0" d="M64.1,126.7c-0.3,0-0.7,0-1,0c-0.1,0-0.3-0.2-0.4-0.3c0.1-0.1,0.2-0.3,0.4-0.3c0.7,0,1.4,0,2.1,0.1
			c0.1,0,0.3,0.2,0.2,0.3c0,0.1-0.2,0.3-0.3,0.3C64.8,126.8,64.4,126.7,64.1,126.7C64.1,126.7,64.1,126.7,64.1,126.7z"/>
		<path class="st0" d="M80.2,6.5c-0.2,0-0.5,0.1-0.6,0.1c-0.5-0.4-0.9-0.4-1.3,0c-0.1,0.1-0.3,0-0.4,0c0,0-0.1-0.2-0.1-0.3
			c0.1-0.7,1.2-1,1.7-0.6c0.2,0.2,0.5,0.4,0.7,0.6C80.2,6.4,80.2,6.4,80.2,6.5z"/>
		<path class="st0" d="M101.1,11.6c-0.1-0.1-0.3-0.2-0.6-0.3c0.2-0.1,0.5-0.3,0.7-0.4c0.5-0.1,1.1-0.1,1.6-0.1
			c0.1,0,0.3,0.2,0.4,0.2c-0.1,0.1-0.3,0.3-0.4,0.4C102.4,11.5,101.9,11.5,101.1,11.6z"/>
		<path class="st0" d="M98.2,11c0.4,0.1,0.8,0.3,1.2,0.4c-0.4,0.1-0.8,0.3-1.2,0.4c-0.4,0.1-0.8,0.1-1.2,0.1c-0.1,0-0.3-0.2-0.4-0.3
			c0.1-0.1,0.2-0.3,0.3-0.3c0.4-0.1,0.8-0.1,1.2-0.1C98.1,11.1,98.2,11,98.2,11z"/>
		<path class="st0" d="M29.7,113c0-0.2,0-0.3,0-0.5c0.1-0.1,0.2-0.3,0.3-0.4c0.1,0.1,0.3,0.2,0.3,0.4c0.1,0.7,0.1,1.3,0.2,2
			c0,0.1-0.2,0.3-0.3,0.4c-0.1-0.1-0.3-0.2-0.3-0.4C29.8,114,29.7,113.5,29.7,113C29.7,113,29.7,113,29.7,113z"/>
		<path class="st0" d="M38.8,12.8c0,0.1,0,0.2,0,0.2c-0.7,0.5-1.5,0.9-2.2,1.4c-0.1-0.1-0.2-0.4-0.2-0.4c0.7-0.5,1.4-0.9,2.2-1.4
			C38.5,12.6,38.7,12.8,38.8,12.8z"/>
		<path class="st0" d="M87.9,127.5c-0.2,0.2-0.3,0.4-0.5,0.4c-0.6,0.3-1.2,0.5-1.9,0.8c-0.1,0.1-0.3-0.1-0.5-0.1
			c0.1-0.1,0.1-0.4,0.2-0.4c0.7-0.3,1.4-0.6,2.1-0.8C87.5,127.2,87.6,127.4,87.9,127.5z"/>
		<path class="st0" d="M80.2,131.8c-0.4,0.3-0.8,0.8-1.2,0.8c-0.4,0-0.8-0.5-1.2-0.8c0,0,0-0.2,0.1-0.3c0.1,0,0.3-0.1,0.4,0
			c0.4,0.4,0.8,0.3,1.3,0c0.1-0.1,0.4,0,0.6,0.1C80.2,131.6,80.2,131.7,80.2,131.8z"/>
		<path class="st0" d="M148.1,33.6c-0.2,0.1-0.3,0.2-0.4,0.2c-0.7-0.3-1.4-0.6-2.1-0.9c-0.1,0-0.1-0.3-0.1-0.4
			c0-0.1,0.2-0.2,0.3-0.1c0.7,0.3,1.5,0.6,2.2,1C147.9,33.3,148,33.4,148.1,33.6z"/>
		<path class="st0" d="M19.6,106.5c0.4,0,0.8,0,1.2,0.1c0.1,0,0.2,0.2,0.3,0.3c-0.1,0.1-0.3,0.3-0.4,0.3c-0.7,0-1.4-0.1-2.2-0.2
			c-0.1,0-0.2-0.2-0.3-0.3c0.1-0.1,0.2-0.3,0.3-0.3C19,106.4,19.3,106.5,19.6,106.5z"/>
		<path class="st0" d="M154.7,71.2c0.1,0.3,0.2,0.5,0.1,0.6c-0.2,0.7-0.5,1.3-0.8,1.9c-0.1,0.1-0.3,0.2-0.4,0.2
			c-0.1-0.1-0.2-0.3-0.2-0.4c0.3-0.7,0.6-1.4,0.9-2.1C154.3,71.4,154.4,71.4,154.7,71.2z"/>
		<path class="st0" d="M4.6,64.3c-0.3,0.8-0.7,1.5-1,2.2c0,0.1-0.3,0.2-0.3,0.1c-0.1-0.1-0.2-0.3-0.2-0.3c0.3-0.7,0.6-1.5,0.9-2.2
			C4.1,64,4.3,64,4.4,64C4.5,64.1,4.5,64.2,4.6,64.3z"/>
		<path class="st0" d="M5.6,60.1c-0.2,0.8-0.3,1.5-0.4,2.1c0,0.1-0.3,0.2-0.4,0.3c-0.1-0.2-0.2-0.3-0.2-0.4c0.1-0.7,0.2-1.3,0.4-2
			c0-0.2,0.3-0.3,0.4-0.4C5.5,59.9,5.6,60.1,5.6,60.1z"/>
		<path class="st0" d="M7,101.3c0.1,0.1,0.2,0.1,0.3,0.2c0.4,0.5,0.9,1,1.3,1.5c0.1,0.1,0.1,0.3,0.1,0.5c-0.2,0-0.4,0-0.5-0.1
			c-0.5-0.5-1-1-1.4-1.6c-0.1-0.1-0.1-0.3-0.1-0.4C6.8,101.4,6.9,101.4,7,101.3z"/>
		<path class="st0" d="M12.7,105.5c-0.2,0.1-0.4,0.2-0.5,0.2c-0.7-0.3-1.4-0.6-2.1-0.9c-0.1,0-0.2-0.2-0.2-0.3
			c0-0.1,0.2-0.2,0.3-0.2c0.8,0.3,1.6,0.6,2.4,1C12.6,105.3,12.6,105.4,12.7,105.5z"/>
		<path class="st0" d="M124.9,105.8c0.5,0,0.8,0,1.2,0c0.2,0,0.4,0.2,0.6,0.3c-0.1,0.2-0.3,0.3-0.4,0.5c-0.1,0.1-0.1,0.3-0.2,0.5
			c-0.1,0.1-0.2,0.3-0.3,0.4c-0.1-0.1-0.3-0.2-0.4-0.3C125.2,106.7,125.1,106.3,124.9,105.8z"/>
		<path class="st0" d="M4.4,74.1C4.3,74,4.1,74,4,73.9c-0.3-0.7-0.6-1.5-0.9-2.2c0-0.1,0.1-0.3,0.1-0.3c0.1,0,0.3,0,0.3,0.1
			c0.4,0.8,0.7,1.7,1.1,2.5C4.6,74,4.5,74,4.4,74.1z"/>
		<path class="st0" d="M151.6,94.1c0-0.3,0-0.7,0-1c0-0.1,0.2-0.3,0.3-0.4c0.1,0.1,0.3,0.2,0.3,0.4c0,0.7,0,1.5,0,2.3
			c0,0.1-0.2,0.2-0.3,0.3c-0.1-0.1-0.3-0.2-0.3-0.3C151.6,94.9,151.6,94.5,151.6,94.1C151.6,94.1,151.6,94.1,151.6,94.1z"/>
		<path class="st0" d="M152.2,43.7c0,0.4,0,0.7,0,1.1c0,0.1-0.2,0.2-0.3,0.3c-0.1-0.1-0.3-0.2-0.3-0.3c0-0.7,0-1.5,0-2.2
			c0-0.1,0.2-0.2,0.2-0.3c0.1,0.1,0.3,0.2,0.3,0.3C152.3,43,152.2,43.4,152.2,43.7z"/>
		<path class="st0" d="M37.3,124.9c-0.8-0.6-1.5-1.1-2.1-1.7c-0.1-0.1-0.1-0.3-0.1-0.3c0.1-0.1,0.3-0.2,0.4-0.2
			c0.6,0.5,1.2,1,1.8,1.5C37.4,124.3,37.3,124.5,37.3,124.9z"/>
		<path class="st0" d="M125.6,119.6c-0.1-0.2-0.2-0.5-0.2-0.6c0.4-0.7,0.8-1.4,1.2-2c0.1-0.1,0.3-0.1,0.5-0.1c0,0.1,0.1,0.3,0,0.4
			c-0.3,0.6-0.7,1.3-1.1,1.9C125.9,119.4,125.8,119.4,125.6,119.6z"/>
		<path class="st0" d="M31.6,118.9c-0.4-0.9-0.8-1.6-1.1-2.4c0-0.1,0.1-0.3,0.1-0.4c0.1-0.1,0.3,0,0.3,0c0.3,0.7,0.7,1.4,1,2.1
			C32,118.4,31.8,118.6,31.6,118.9z"/>
		<path class="st0" d="M143.5,32.3c-0.8-0.2-1.4-0.3-2-0.4c-0.2,0-0.3-0.3-0.4-0.4c0.2-0.1,0.3-0.2,0.5-0.2c0.6,0.1,1.3,0.2,1.9,0.4
			c0.2,0,0.3,0.3,0.4,0.4C143.8,32.2,143.6,32.3,143.5,32.3z"/>
		<path class="st0" d="M124.8,32.6c0.2-0.5,0.3-0.9,0.5-1.3c0-0.1,0.1-0.2,0.1-0.2c0.1-0.1,0.4-0.1,0.4-0.1c0.3,0.4,0.6,0.8,0.8,1.2
			c0,0-0.2,0.3-0.3,0.3C125.8,32.5,125.3,32.5,124.8,32.6z"/>
		<path class="st0" d="M33.1,32.3c-0.5,0-0.9,0-1.2-0.1c-0.2,0-0.4-0.2-0.6-0.3c0.1-0.2,0.3-0.3,0.4-0.5c0.1-0.1,0.1-0.2,0.2-0.3
			c0.1-0.2,0.2-0.3,0.2-0.5c0.2,0.1,0.4,0.3,0.5,0.4C32.8,31.4,32.9,31.8,33.1,32.3z"/>
		<path class="st0" d="M6.3,85.6c0,0.3,0,0.6,0,0.9c0,0.1-0.2,0.3-0.3,0.4c-0.1-0.1-0.3-0.2-0.3-0.3c-0.1-0.7-0.1-1.5-0.1-2.3
			c0-0.1,0.2-0.3,0.3-0.3c0.1,0,0.3,0.2,0.3,0.3C6.3,84.8,6.3,85.2,6.3,85.6C6.3,85.6,6.3,85.6,6.3,85.6z"/>
		<path class="st0" d="M83.7,8.7c-0.2,0-0.4,0.2-0.5,0.1c-0.6-0.3-1.3-0.7-1.9-1.1c-0.1,0-0.1-0.3,0-0.4c0-0.1,0.3-0.2,0.3-0.1
			c0.7,0.4,1.3,0.8,2,1.2C83.6,8.4,83.6,8.5,83.7,8.7z"/>
		<path class="st0" d="M156.8,69c-0.4,0.4-0.7,0.8-1,1.1c0,0-0.3,0-0.3,0c-0.1-0.1-0.1-0.3-0.1-0.4c0.4-0.5,0.4-0.9,0-1.3
			c-0.1-0.1,0-0.3,0-0.3c0.1-0.1,0.3-0.1,0.3-0.1C156.1,68.2,156.4,68.6,156.8,69z"/>
		<path class="st0" d="M88.9,10.6c0.7,0.2,1.4,0.3,1.9,0.5c0.1,0,0.2,0.2,0.3,0.4c-0.2,0.1-0.3,0.3-0.5,0.2
			c-0.6-0.1-1.2-0.3-1.8-0.4c-0.1,0-0.2-0.3-0.3-0.4C88.7,10.7,88.8,10.6,88.9,10.6z"/>
		<path class="st0" d="M151.6,89.8c0-0.3,0-0.7,0-1c0-0.2,0.2-0.3,0.3-0.4c0.1,0.1,0.3,0.3,0.3,0.4c0,0.7,0,1.3,0,2
			c0,0.2-0.2,0.3-0.3,0.5c-0.1-0.2-0.3-0.3-0.3-0.5C151.6,90.4,151.6,90.1,151.6,89.8C151.6,89.8,151.6,89.8,151.6,89.8z"/>
		<path class="st0" d="M6.3,52.5c0,0.4,0,0.8-0.1,1.2c0,0.1-0.2,0.2-0.3,0.3c-0.1-0.1-0.2-0.2-0.2-0.3c0-0.7,0-1.4,0.1-2.1
			c0-0.1,0.2-0.3,0.4-0.4c0.1,0.2,0.2,0.3,0.3,0.5C6.3,51.9,6.3,52.2,6.3,52.5C6.3,52.5,6.3,52.5,6.3,52.5z"/>
		<path class="st0" d="M127.5,21.6c-0.1,0.1-0.1,0.3-0.2,0.3c-0.1,0-0.3,0-0.4-0.1c-0.3-0.6-0.6-1.2-0.9-1.9
			c-0.1-0.1,0.1-0.3,0.1-0.5c0,0,0.3,0,0.3,0.1C126.8,20.2,127.1,20.9,127.5,21.6z"/>
		<path class="st0" d="M33.2,105.6c-0.3,0.6-0.5,1.1-0.8,1.7c-0.4-0.5-0.7-0.9-1-1.4C31.6,105.6,32,105.5,33.2,105.6z"/>
		<path class="st0" d="M31.8,108.7c-0.3,0.7-0.6,1.4-0.9,2c0,0.1-0.3,0.1-0.4,0.2c-0.1-0.2-0.2-0.3-0.2-0.5c0.2-0.6,0.5-1.3,0.8-1.9
			c0.1-0.1,0.3-0.2,0.4-0.2C31.7,108.4,31.7,108.6,31.8,108.7z"/>
		<path class="st0" d="M83.8,129.2c-0.1,0.2-0.1,0.3-0.1,0.3c-0.7,0.4-1.5,0.9-2.2,1.3c0,0-0.2-0.1-0.2-0.1c0-0.1,0-0.4,0.1-0.4
			c0.7-0.4,1.3-0.8,2-1.2C83.5,129,83.7,129.2,83.8,129.2z"/>
		<path class="st0" d="M151.4,99.9c0.1-0.9,0.2-1.8,0.3-2.7c0,0,0.4,0,0.5,0c0.3,0.4-0.1,2.3-0.5,2.7
			C151.6,100,151.5,100,151.4,99.9z"/>
		<path class="st0" d="M151.3,101.5c-0.1,0.1-0.1,0.3-0.2,0.4c-0.4,0.5-0.9,1-1.3,1.5c-0.1,0.1-0.3,0.1-0.5,0.2c0-0.2,0-0.4,0.1-0.6
			c0.4-0.5,0.8-1.1,1.3-1.6c0.1-0.1,0.3-0.1,0.5-0.2C151.2,101.3,151.2,101.4,151.3,101.5z"/>
		<path class="st0" d="M55.7,127.3c-0.4-0.1-0.7-0.3-1.1-0.4c0.4-0.1,0.7-0.3,1.1-0.4c0.3-0.1,0.7-0.1,1.1-0.1
			c0.2,0,0.3,0.2,0.5,0.3c-0.1,0.1-0.3,0.3-0.4,0.3c-0.4,0.1-0.7,0.1-1.1,0.1C55.7,127.3,55.7,127.3,55.7,127.3z"/>
		<path class="st0" d="M115.2,126.9c0-0.3-0.1-0.4-0.1-0.4c0.9-0.3,1.7-0.5,2.6-0.8c0,0.2,0,0.5-0.1,0.5
			C116.9,126.5,116,126.7,115.2,126.9z"/>
		<path class="st0" d="M69.1,127.5c-0.8-0.2-1.4-0.3-2-0.5c-0.1,0-0.2-0.2-0.3-0.4c0.2-0.1,0.3-0.3,0.5-0.2c0.6,0.1,1.3,0.3,1.9,0.4
			c0.1,0,0.2,0.2,0.3,0.4C69.3,127.3,69.2,127.4,69.1,127.5z"/>
		<path class="st0" d="M44.6,127.2c-0.7-0.1-1.3-0.2-1.9-0.4c-0.1,0-0.2-0.2-0.3-0.4c0.2-0.1,0.3-0.2,0.5-0.2
			c0.6,0.1,1.1,0.2,1.7,0.3c0.2,0,0.3,0.3,0.5,0.4C44.9,127.1,44.7,127.2,44.6,127.2z"/>
		<path class="st0" d="M59.7,127c-0.4-0.1-0.7-0.2-1.1-0.4c0.4-0.1,0.7-0.3,1.1-0.4c0.4-0.1,0.8-0.1,1.2,0c0.1,0,0.2,0.1,0.4,0.2
			c-0.1,0.1-0.2,0.3-0.3,0.4c-0.4,0.1-0.8,0.1-1.2,0.2C59.7,126.9,59.7,127,59.7,127z"/>
		<path class="st0" d="M117.2,11.6c0.7,0.3,1.4,0.6,2.1,0.9c0.1,0,0.2,0.3,0.1,0.3c-0.1,0.1-0.3,0.2-0.4,0.2c-0.7-0.2-1.4-0.5-2-0.8
			c-0.1,0-0.1-0.3-0.1-0.4C116.9,11.7,117.1,11.7,117.2,11.6z"/>
		<path class="st0" d="M85,9.1c0.7,0.3,1.4,0.6,2.1,1c0.1,0,0.1,0.3,0.1,0.4c0,0.1-0.2,0.2-0.3,0.1c-0.7-0.3-1.4-0.6-2.1-0.9
			c-0.1,0-0.1-0.2-0.1-0.3C84.8,9.2,84.9,9.2,85,9.1z"/>
		<path class="st0" d="M152.2,39.8c0,0.3,0,0.5,0,0.6c0,0.1-0.2,0.2-0.2,0.3c-0.1-0.1-0.3-0.2-0.3-0.3c-0.1-0.7-0.2-1.3-0.3-2
			c0-0.2,0.2-0.3,0.2-0.5c0.1,0.1,0.3,0.3,0.4,0.4C152.1,38.9,152.2,39.4,152.2,39.8z"/>
		<path class="st0" d="M122.9,15.2c-0.2,0-0.5,0.1-0.6,0c-0.5-0.4-1-0.8-1.5-1.2c-0.1-0.1-0.1-0.4-0.2-0.5c0.2,0,0.5,0,0.6,0.1
			c0.6,0.4,1.1,0.9,1.7,1.4C122.9,15,122.9,15.1,122.9,15.2z"/>
		<path class="st0" d="M52,126.7c0.4,0.1,0.8,0.3,1.2,0.4c-0.4,0.1-0.8,0.3-1.1,0.4c-0.3,0.1-0.7,0.1-1,0.1c-0.2,0-0.4-0.2-0.6-0.3
			c0.2-0.1,0.3-0.3,0.5-0.3c0.3-0.1,0.7-0.1,1-0.1C52,126.7,52,126.7,52,126.7z"/>
		<path class="st0" d="M125.3,18.5c-0.3-0.2-0.4-0.3-0.5-0.4c-0.4-0.4-0.8-0.9-1.1-1.3c-0.1-0.1-0.1-0.4-0.1-0.6
			c0.2,0,0.4,0,0.5,0.1c0.4,0.5,0.8,0.9,1.2,1.5C125.4,17.9,125.3,18.2,125.3,18.5z"/>
		<path class="st0" d="M71.1,127.4c0.7,0.3,1.4,0.6,2,0.9c0.1,0,0.1,0.3,0.1,0.4c0,0.1-0.3,0.2-0.4,0.1c-0.6-0.3-1.3-0.5-1.9-0.8
			c-0.1,0-0.2-0.3-0.1-0.4C70.8,127.5,70.9,127.5,71.1,127.4z"/>
		<path class="st0" d="M152.2,48.2c0,0.3,0,0.7,0,1c0,0.1-0.2,0.2-0.3,0.4c-0.1-0.1-0.3-0.2-0.3-0.4c0-0.7,0-1.4,0-2.2
			c0-0.1,0.2-0.2,0.3-0.3c0.1,0.1,0.2,0.2,0.2,0.3C152.3,47.4,152.2,47.8,152.2,48.2C152.2,48.2,152.2,48.2,152.2,48.2z"/>
		<path class="st0" d="M149.5,34.3c0.5,0.6,1,1.2,1.5,1.8c0.1,0.1,0.1,0.4,0.1,0.6c-0.2-0.1-0.4,0-0.5-0.2c-0.5-0.5-0.9-1-1.3-1.5
			c-0.1-0.1,0-0.4,0-0.6C149.3,34.3,149.4,34.3,149.5,34.3z"/>
		<path class="st0" d="M115.1,11.8c-0.7-0.1-1.3-0.2-1.9-0.4c-0.1,0-0.2-0.2-0.3-0.4c0.2-0.1,0.3-0.2,0.5-0.2
			c0.6,0.1,1.1,0.1,1.7,0.3c0.2,0,0.3,0.3,0.5,0.4C115.4,11.6,115.2,11.7,115.1,11.8z"/>
		<path class="st0" d="M41.1,126.1c-0.1,0.1-0.3,0.3-0.4,0.2c-0.7-0.3-1.4-0.6-2.1-0.9c-0.1,0-0.1-0.3,0-0.3c0-0.1,0.2-0.2,0.3-0.1
			c0.7,0.3,1.3,0.6,2,0.9C41,125.8,41,126,41.1,126.1z"/>
		<path class="st0" d="M34.5,121.5c-0.1,0.2-0.2,0.3-0.2,0.3c-0.1,0-0.3,0-0.4-0.1c-0.4-0.5-0.9-1-1.3-1.6c-0.1-0.1,0-0.3,0-0.4
			c0,0,0.2-0.1,0.3-0.1C33.4,120.3,33.9,120.9,34.5,121.5z"/>
		<path class="st0" d="M76.9,130.7c-0.2,0-0.5,0.1-0.6,0.1c-0.6-0.3-1.2-0.7-1.7-1.1c-0.1-0.1-0.2-0.3-0.2-0.4
			c0-0.1,0.3-0.2,0.4-0.2c0.7,0.4,1.3,0.8,2,1.2C76.8,130.4,76.8,130.5,76.9,130.7z"/>
		<path class="st0" d="M64.5,11.8c-0.3,0.1-0.5,0.2-0.8,0.2c-0.6,0-1.2,0-1.8,0c-0.1,0-0.3-0.2-0.3-0.3c0-0.1,0.1-0.3,0.2-0.3
			c0.9-0.1,1.8-0.2,2.6,0.1C64.5,11.5,64.5,11.7,64.5,11.8z"/>
		<path class="st0" d="M127.6,27.5c-0.3,0.7-0.6,1.3-0.9,2c0,0.1-0.3,0.2-0.4,0.1c-0.1,0-0.2-0.3-0.2-0.4c0.3-0.7,0.5-1.3,0.8-1.9
			c0-0.1,0.3-0.2,0.3-0.1C127.5,27.2,127.5,27.4,127.6,27.5z"/>
		<path class="st0" d="M93.8,11.3c0.3,0,0.6,0,0.9,0c0.2,0,0.3,0.2,0.4,0.3c-0.1,0.1-0.3,0.3-0.4,0.3c-0.6,0-1.2,0-1.8,0
			c-0.1,0-0.3-0.2-0.4-0.3c0.1-0.1,0.3-0.3,0.4-0.3C93.3,11.3,93.5,11.3,93.8,11.3C93.8,11.3,93.8,11.3,93.8,11.3z"/>
		<g id="Artwork_6_1_">
			<g>
				<defs>
					<rect id="SVGID_1_" x="65.3" y="23.6" width="39.2" height="7"/>
				</defs>
				<clipPath id="SVGID_2_">
					<use xlink:href="#SVGID_1_"  style="overflow:visible;"/>
				</clipPath>
				<polygon class="st2" points="65.3,23.9 65.3,25.1 67.4,25.1 67.4,30.4 68.8,30.4 68.8,25.1 70.9,25.1 70.9,23.9 				"/>
				<polygon class="st2" points="80.8,27.9 78.3,23.9 80,23.9 81.6,26.6 83.3,23.9 85,23.9 82.4,27.9 82.4,30.4 80.8,30.4 				"/>
				<path class="st2" d="M101,25.4l0.9,2.4h-1.9L101,25.4z M100.1,23.9l-2.6,6.5h1.5l0.6-1.4h2.8l0.6,1.4h1.5l-2.6-6.5H100.1z"/>
				<polygon class="st2" points="94.4,25.1 92.4,25.1 92.4,23.9 97.9,23.9 97.9,25.1 95.8,25.1 95.8,30.4 94.4,30.4 				"/>
				<g class="st3">
					<defs>
						<rect id="SVGID_3_" x="65.3" y="23.6" width="39.2" height="7"/>
					</defs>
					<clipPath id="SVGID_4_">
						<use xlink:href="#SVGID_3_"  style="overflow:visible;"/>
					</clipPath>
					<path class="st4" d="M72.3,24.7c0.6-0.6,1.5-1.1,2.5-1.1c2,0,3.5,1.6,3.5,3.6c0,0.8-0.3,1.6-0.8,2.2c-0.6,0.7-1.6,1.2-2.7,1.2
						c-2,0-3.5-1.5-3.5-3.4C71.2,26.2,71.6,25.3,72.3,24.7 M74.7,29.3c1.3,0,1.9-1,1.9-2.1c0-1.2-0.5-2.2-1.9-2.2
						c-1.4,0-1.9,1.2-1.9,2.2C72.9,28.3,73.5,29.3,74.7,29.3"/>
					<path class="st4" d="M86,24.7c0.6-0.6,1.5-1.1,2.5-1.1c2,0,3.5,1.6,3.5,3.6c0,0.8-0.3,1.6-0.8,2.2c-0.6,0.7-1.6,1.2-2.7,1.2
						c-2,0-3.5-1.5-3.5-3.4C85,26.2,85.4,25.3,86,24.7 M88.5,29.3c1.3,0,1.9-1,1.9-2.1c0-1.2-0.5-2.2-1.9-2.2
						c-1.4,0-1.9,1.2-1.9,2.2C86.7,28.3,87.2,29.3,88.5,29.3"/>
				</g>
			</g>
		</g>
		<path class="st1" d="M60.8,23.7c-0.8-0.3-1.9-0.6-3.2-0.6c0,0,0,0,0,0c-0.1,0-0.1,0-0.2,0c0,0,0,0,0,0c0,0,0,0,0,0c0,0,0,0,0,0
			c-1.3,0-2.6,0.3-3.4,0.6c-1.8,0.7-2.9,1.9-2.9,3.4c0,2.3,2.7,4.1,6.3,4.1c3.6,0,6.3-1.8,6.3-4.1C63.7,25.7,62.6,24.5,60.8,23.7z
			 M57.9,23.6c0.7,0,1.3,0.1,1.9,0.3c0.7,0.2,1.3,0.6,1.3,1c0,0.7-1,1-2.2,1.2c-0.2-1.5-0.8-2.4-1.4-2.4c-0.7,0-1.3,0.8-1.5,2.4
			c-1.2-0.2-2.2-0.6-2.2-1.2c0-0.4,0.5-0.7,1.2-1c0.6-0.2,1.3-0.3,2-0.3C57.2,23.6,57.7,23.6,57.9,23.6z M58.4,27.2
			c0,1.5-0.5,2.4-1,2.4c-0.4,0-1-0.8-1-2.4c0,0,0,0,0,0c0.3,0,0.6,0,1,0C57.7,27.2,58,27.2,58.4,27.2C58.4,27.1,58.4,27.1,58.4,27.2
			z M57.4,26.2c-0.3,0-0.6,0-0.9,0c0.2-1.1,0.6-1.6,0.9-1.6c0.4,0,0.7,0.4,0.9,1.6C58,26.2,57.7,26.2,57.4,26.2z M56.9,30.8
			c-2.4-0.2-4.9-1.6-4.9-3.9c0-0.6,0.3-1.3,0.7-1.8c0.1,1.2,1.4,1.8,3.2,2C55.9,27.9,55.9,29.8,56.9,30.8z M59,27.1
			c1.9-0.3,3.1-1,3.1-2c0.4,0.4,0.7,1.1,0.7,1.7c0,2.3-2.5,3.7-4.9,3.9C58.4,30.3,59,29.1,59,27.1z"/>
	</g>
</g>
</svg>
