<?xml version="1.0" encoding="utf-8"?>
<!-- Generator: Adobe Illustrator 22.1.0, SVG Export Plug-In . SVG Version: 6.00 Build 0)  -->
<svg version="1.1" id="Layer_1" xmlns="http://www.w3.org/2000/svg" xmlns:xlink="http://www.w3.org/1999/xlink" x="0px" y="0px"
	 viewBox="0 0 36 36" style="enable-background:new 0 0 36 36;" xml:space="preserve">
<style type="text/css">
	.st0{fill:none;}
	.st1{display:none;fill:#FFFFFF;}
	.st2{fill:#FFFFFF;}
	.st3{display:none;fill:none;}
</style>
<path class="st0" d="M0,0h36v36H0V0z"/>
<path class="st1" d="M9.9,16.2c2.2,4.2,5.6,7.7,9.9,9.9l3.3-3.3c0.4-0.4,1-0.5,1.5-0.4c1.7,0.6,3.5,0.9,5.4,0.9
	c0.8,0,1.5,0.7,1.5,1.5V30c0,0.8-0.7,1.5-1.5,1.5C15.9,31.5,4.5,20.1,4.5,6c0-0.8,0.7-1.5,1.5-1.5h5.2c0.8,0,1.5,0.7,1.5,1.5
	c0,1.9,0.3,3.7,0.9,5.4c0.2,0.5,0,1.1-0.4,1.5L9.9,16.2z"/>
<path class="st2" d="M18,3C12.2,3,7.5,7.7,7.5,13.5C7.5,21.4,18,33,18,33s10.5-11.6,10.5-19.5C28.5,7.7,23.8,3,18,3z M18,17.2
	c-2.1,0-3.8-1.7-3.8-3.8s1.7-3.8,3.8-3.8s3.8,1.7,3.8,3.8S20.1,17.2,18,17.2z"/>
<path class="st3" d="M0,0h36v36H0V0z"/>
</svg>
