<?xml version="1.0" encoding="utf-8"?>
<!-- Generator: Adobe Illustrator 22.1.0, SVG Export Plug-In . SVG Version: 6.00 Build 0)  -->
<svg version="1.1" id="Layer_1" xmlns="http://www.w3.org/2000/svg" xmlns:xlink="http://www.w3.org/1999/xlink" x="0px" y="0px"
	 viewBox="0 0 176 190.5" style="enable-background:new 0 0 176 190.5;" xml:space="preserve">
<style type="text/css">
	.st0{fill:#BF2026;}
</style>
<path class="st0" d="M170.5,98.7l-42-66.7c-2.9-4.6-7.1-8.2-12-10.4L71.6,1.7c-2.4-1.1-5.1,0.5-5.5,3c-0.9,6.3-2.4,16.8-3,21.3
	c-0.2,1.3,0.3,2.5,1.3,3.4c1.8,1.7,3.4,3.7,4.6,6.1c4.2,8.5,1.9,19-5.4,25c-10.4,8.5-25.9,5-31.7-7.1c-4-8.3-1.8-18.4,5.2-24.4
	c1.8-1.5,3.8-2.7,5.8-3.5c1.3-0.5,2.3-1.7,2.5-3.1l1.8-12.9c0.5-3.3-3.1-5.6-6-3.9l-30.1,19c-4.4,2.8-7.1,7.5-7.3,12.7L1.5,94
	c-0.2,5.6,1.2,11.1,4.2,15.8l41.9,66.5c7.7,12.2,23.8,15.8,36,8.1l78.8-49.7C174.6,126.9,178.2,110.8,170.5,98.7z M96.3,142.8
	c-1.8,0.7-2.9,2.4-3,4.3l-0.1,2.8c-0.1,2.6-2.2,4.6-4.8,4.6l-4.7-0.1c-2.6-0.1-4.7-2.2-4.6-4.8v-0.1c0-2.4-1.8-4.4-4.1-4.7
	c-3.3-0.4-6.3-1.1-8.8-1.9c-2.3-0.7-3.7-3.1-3.2-5.5l0.9-4.2c0.6-2.7,3.5-4.3,6.1-3.4c3.8,1.3,8.4,2.2,13.1,2.1
	c7.4-0.2,11.3-3.3,11.2-8c-0.1-4.5-3.5-6.9-12.2-9.8c-12-3.9-19.8-10.3-20.1-20.7c-0.2-9.3,5.6-17.1,15.8-20.4
	c1.9-0.6,3.1-2.4,3.2-4.3l0.1-5.2c0.1-2.6,2.2-4.7,4.8-4.6l4.7,0.1c2.6,0.1,4.7,2.2,4.6,4.8l-0.1,3.6c-0.1,2.3,1.5,4.3,3.8,4.7
	c1.3,0.2,2.5,0.5,3.7,0.9c2.4,0.7,3.9,3.2,3.3,5.7l-1,3.9c-0.7,2.6-3.3,4.1-5.9,3.3c-2.8-0.8-6.2-1.4-10.4-1.3
	c-7,0.1-10.3,3.4-10.2,7.1c0.1,4.6,4.2,6.5,13.5,9.8c12.7,4.4,18.8,10.8,19,20.9C111.1,131.2,106.4,139,96.3,142.8z"/>
</svg>
