<?xml version="1.0" encoding="utf-8"?>
<!-- Generator: Adobe Illustrator 22.1.0, SVG Export Plug-In . SVG Version: 6.00 Build 0)  -->
<svg version="1.1" id="Layer_1" xmlns="http://www.w3.org/2000/svg" xmlns:xlink="http://www.w3.org/1999/xlink" x="0px" y="0px"
	 viewBox="0 0 158.2 140" style="enable-background:new 0 0 158.2 140;" xml:space="preserve">
<style type="text/css">
	.st0{clip-path:url(#SVGID_2_);}
	.st1{clip-path:url(#SVGID_4_);fill:#231F20;}
	.st2{clip-path:url(#SVGID_4_);fill:none;stroke:#999999;stroke-width:0.7446;stroke-miterlimit:10;}
	.st3{clip-path:url(#SVGID_4_);fill:#D72027;}
	.st4{clip-path:url(#SVGID_4_);fill:#BC2026;}
	.st5{clip-path:url(#SVGID_4_);fill:#3E1214;}
	.st6{clip-path:url(#SVGID_4_);fill:#999999;}
	.st7{clip-path:url(#SVGID_4_);fill:#FFFFFF;}
</style>
<g id="Artwork_8_1_">
	<g>
		<defs>
			<rect id="SVGID_1_" x="1" y="1" width="156" height="138.1"/>
		</defs>
		<clipPath id="SVGID_2_">
			<use xlink:href="#SVGID_1_"  style="overflow:visible;"/>
		</clipPath>
		<g class="st0">
			<defs>
				<rect id="SVGID_3_" x="1" y="1" width="156" height="138.1"/>
			</defs>
			<clipPath id="SVGID_4_">
				<use xlink:href="#SVGID_3_"  style="overflow:visible;"/>
			</clipPath>
			<path class="st1" d="M134.7,14.6v87.5c0,1.9-0.5,3.8-1.6,5.5c-3.9,6.3-16.5,20.9-53.5,31.6c-37-10.7-49.7-25.3-53.5-31.6
				c-1-1.7-1.6-3.6-1.6-5.5V14.6L79.6,1L134.7,14.6z"/>
			<path class="st2" d="M132.4,17.2V101c0,1.9-0.5,3.7-1.5,5.3c-3.7,6-15.8,20-51.3,30.2c-35.5-10.2-47.6-24.2-51.3-30.2
				c-1-1.6-1.5-3.4-1.5-5.3V17.2l52.8-13L132.4,17.2z"/>
			<line class="st2" x1="132.4" y1="33.6" x2="27.1" y2="33.6"/>
			<line class="st2" x1="91.5" y1="64.5" x2="68" y2="64.5"/>
			<line class="st2" x1="91.5" y1="67.8" x2="68" y2="67.8"/>
			<path class="st3" d="M58.8,20.5c-0.3-1.8-1-3.1-1.8-3.1c-0.9,0-1.6,1.2-1.9,3.1l-0.1,0c-1.7-0.3-2.7-0.9-2.7-1.5
				c0-1,2-1.7,4.6-1.7c2.6,0,4.7,0.7,4.7,1.6C61.6,19.6,60.5,20.2,58.8,20.5 M65,21.9c0-3-3.5-5.2-8.1-5.2c-4.5,0-8.1,2.3-8.1,5.1
				c0,2.9,3.6,5.3,8.1,5.3C61.4,27.1,65,24.7,65,21.9 M57.6,26.4c0.9-0.9,1.4-2.4,1.4-4.6v-0.1l0.1,0c2.3-0.3,3.9-1.3,3.9-2.4v-0.1
				c0.6,0.7,0.9,1.6,0.9,2.4C63.8,24.1,61.1,26.2,57.6,26.4 M50.9,19.2C50.9,19.3,50.9,19.3,50.9,19.2c0,1.2,1.5,2.1,3.9,2.5l0.1,0
				v0.2c0,2.2,0.5,3.7,1.3,4.5c-3.7-0.3-6.3-2.3-6.3-4.8C50,20.8,50.3,19.9,50.9,19.2 M58.1,20.6L58.1,20.6c-0.4,0-0.8,0-1.1,0
				c-0.4,0-0.8,0-1.1,0l-0.1,0c0.2-1.2,0.6-2,1.1-2C57.5,18.6,57.9,19.3,58.1,20.6L58.1,20.6z M58.2,21.8c-0.1,1.7-0.6,3-1.2,3
				c-0.7,0-1.2-1.2-1.3-3h0.1c0.4,0,0.8,0.1,1.3,0.1C57.6,21.9,57.8,21.9,58.2,21.8"/>
			<polygon class="st3" points="72.7,19.6 70.4,19.6 70.4,25.6 68.8,25.6 68.8,19.6 66.5,19.6 66.5,18.2 72.7,18.2 			"/>
			<path class="st3" d="M79.1,21.9c0,1.5-0.8,2.5-2.1,2.5c-1.3,0-2.1-1-2.1-2.4c0-1.5,0.9-2.4,2.2-2.4
				C78.3,19.5,79.1,20.5,79.1,21.9 M80.9,21.9c0-2.1-1.8-3.9-3.9-3.9c-2.1,0-3.9,1.8-3.9,4c0,2.2,1.7,3.9,3.9,3.9
				C79.1,25.8,80.9,24.1,80.9,21.9"/>
			<polygon class="st3" points="85.5,22.9 85.5,25.6 83.9,25.6 83.9,22.8 81,18.2 82.9,18.2 84.7,21.3 86.6,18.2 88.5,18.2 			"/>
			<path class="st3" d="M94.5,21.9c0,1.5-0.8,2.5-2.1,2.5c-1.3,0-2.1-1-2.1-2.4c0-1.5,0.9-2.4,2.2-2.4
				C93.6,19.5,94.5,20.5,94.5,21.9 M96.3,21.9c0-2.1-1.8-3.9-3.9-3.9c-2.1,0-3.9,1.8-3.9,4c0,2.2,1.7,3.9,3.9,3.9
				C94.5,25.8,96.3,24.1,96.3,21.9"/>
			<polygon class="st3" points="102.9,19.6 100.5,19.6 100.5,25.6 98.9,25.6 98.9,19.6 96.6,19.6 96.6,18.2 102.9,18.2 			"/>
			<path class="st3" d="M106.3,19.8l1.1,2.8h-2.1L106.3,19.8z M107.3,18.2h-2l-2.9,7.3h1.8l0.6-1.6h3.1l0.6,1.6h1.8L107.3,18.2z"/>
			<polygon class="st4" points="157,89.1 138.6,89.1 138.6,65 157,65 153.1,77.6 			"/>
			<polygon class="st4" points="1,89.1 19.4,89.1 19.4,65 1,65 4.9,77.6 			"/>
			<rect x="12" y="73.4" class="st3" width="134" height="24"/>
			<polygon class="st5" points="19.4,73.4 19.4,65 12,73.4 			"/>
			<polygon class="st5" points="138.6,73.4 138.6,65 146,73.4 			"/>
			<polygon class="st6" points="55.6,114 53.3,115.7 54.2,112.9 51.8,111.2 54.7,111.2 55.6,108.4 56.5,111.2 59.5,111.2 
				57.1,112.9 58,115.7 			"/>
			<polygon class="st6" points="67.9,114 65.5,115.7 66.4,112.9 64.1,111.2 67,111.2 67.9,108.4 68.8,111.2 71.7,111.2 69.3,112.9 
				70.2,115.7 			"/>
			<polygon class="st6" points="80.1,114 77.8,115.7 78.7,112.9 76.3,111.2 79.2,111.2 80.1,108.4 81,111.2 83.9,111.2 81.6,112.9 
				82.5,115.7 			"/>
			<polygon class="st6" points="92.4,114 90,115.7 90.9,112.9 88.5,111.2 91.5,111.2 92.4,108.4 93.3,111.2 96.2,111.2 93.8,112.9 
				94.7,115.7 			"/>
			<polygon class="st6" points="104.6,114 102.2,115.7 103.1,112.9 100.8,111.2 103.7,111.2 104.6,108.4 105.5,111.2 108.4,111.2 
				106.1,112.9 107,115.7 			"/>
			<polygon class="st7" points="126,87.4 122.8,89.7 124,86 120.9,83.7 124.8,83.7 126,79.9 127.2,83.7 131.1,83.7 128,86 
				129.2,89.7 			"/>
			<polygon class="st7" points="33.1,87.4 29.9,89.7 31.2,86 28,83.7 31.9,83.7 33.1,79.9 34.3,83.7 38.2,83.7 35.1,86 36.3,89.7 
							"/>
			<path class="st7" d="M48.1,45.9c1.7-0.3,2.6-0.4,4.3-0.6c0.1,0.7,0.1,1,0.2,1.7c-0.6,0.1-0.9,0.1-1.5,0.2
				c0.5,3.3,0.9,6.6,1.4,9.9c0.6-0.1,0.8-0.1,1.4-0.2c0.1,0.7,0.1,1,0.2,1.7c-1.7,0.2-2.6,0.4-4.3,0.6c-0.1-0.7-0.2-1-0.3-1.6
				c0.5-0.1,0.8-0.1,1.4-0.2c-0.5-3.3-1-6.6-1.5-9.9c-0.8,4.1-1.5,8.2-2.2,12.3c-0.1,0-0.2,0-0.3,0.1c-2-3.7-4-7.3-6.1-10.9
				c0.6,3.3,1.3,6.6,1.9,9.9c0.5-0.1,0.8-0.1,1.3-0.2c0.1,0.7,0.2,1,0.3,1.6c-1.6,0.3-2.4,0.5-4.1,0.8c-0.1-0.7-0.2-1-0.3-1.6
				c0.6-0.1,0.8-0.2,1.4-0.3c-0.7-3.3-1.3-6.6-2-9.8c-0.6,0.1-0.9,0.2-1.5,0.3c-0.1-0.7-0.2-1-0.3-1.6c1.7-0.3,2.5-0.5,4.2-0.8
				c1.6,2.8,3.2,5.6,4.8,8.4C46.9,52.3,47.5,49.1,48.1,45.9"/>
			<path class="st7" d="M57.5,46.4c0.4,3.3,0.7,6.6,1.1,10c0.5-0.1,0.8-0.1,1.3-0.1c0.1,0.7,0.1,1,0.2,1.7c-1.7,0.2-2.6,0.3-4.3,0.5
				c-0.1-0.7-0.1-1-0.2-1.7c0.5-0.1,0.8-0.1,1.3-0.2c-0.4-3.3-0.8-6.6-1.2-10c-0.5,0.1-0.8,0.1-1.3,0.2c-0.1-0.7-0.1-1-0.2-1.7
				c1.8-0.2,2.7-0.3,4.5-0.5c0.1,0.7,0.1,1,0.2,1.7C58.3,46.3,58,46.3,57.5,46.4"/>
			<path class="st7" d="M63.7,45.8c0.3,3.3,0.5,6.7,0.8,10c1.5-0.1,2.3-0.2,3.8-0.3c-0.1-1.7-0.1-2.5-0.2-4.1c0.6,0,0.9-0.1,1.5-0.1
				c0.1,1.9,0.2,3.9,0.3,5.8c-2.8,0.2-5.7,0.4-8.5,0.6c-0.1-0.7-0.1-1-0.2-1.7c0.6-0.1,0.9-0.1,1.5-0.1c-0.3-3.3-0.6-6.7-0.9-10
				c-0.6,0.1-0.9,0.1-1.6,0.1c-0.1-0.7-0.1-1-0.2-1.7c2-0.2,3-0.3,5.1-0.4c0,0.7,0.1,1,0.1,1.7C64.7,45.7,64.4,45.7,63.7,45.8"/>
			<path class="st7" d="M74.2,45.2c0.1,3.3,0.2,6.7,0.3,10c0.5,0,0.8,0,1.3,0c0,0.7,0,1,0,1.7c-1.7,0-2.6,0.1-4.3,0.1
				c0-0.7,0-1-0.1-1.7c0.5,0,0.8,0,1.3-0.1c-0.1-3.3-0.3-6.7-0.4-10c-0.5,0-0.8,0-1.3,0.1c0-0.7,0-1-0.1-1.7
				c1.8-0.1,2.7-0.1,4.6-0.2c0,0.7,0,1,0,1.7C75,45.2,74.8,45.2,74.2,45.2"/>
			<path class="st7" d="M85.4,48.4c0-1.3,0-1.9,0.1-3.2c-1,0-1.5,0-2.5,0c0,3.3-0.1,6.7-0.1,10c0.6,0,0.9,0,1.5,0c0,0.7,0,1,0,1.7
				c-1.9,0-2.9,0-4.8,0c0-0.7,0-1,0-1.7c0.6,0,0.9,0,1.5,0l0-10c-1,0-1.5,0-2.5,0c0,1.3,0,1.9,0,3.2c-0.6,0-0.9,0-1.5,0
				c0-2,0-2.9-0.1-4.9c3.4,0,6.7,0,10,0.1c-0.1,2-0.1,2.9-0.2,4.9C86.3,48.4,86,48.4,85.4,48.4"/>
			<path class="st7" d="M94.7,45.6c0.9,3.4,1.7,6.9,2.5,10.3c0.5,0,0.8,0.1,1.3,0.1c-0.1,0.7-0.1,1-0.2,1.7
				c-1.8-0.2-2.7-0.2-4.6-0.4c0-0.7,0.1-1,0.1-1.7c0.6,0,0.9,0.1,1.5,0.1c-0.3-1.2-0.4-1.9-0.7-3.1c-1.7-0.1-2.6-0.2-4.3-0.3
				c-0.4,1.2-0.6,1.8-1.1,3c0.6,0,0.9,0,1.5,0.1c0,0.7-0.1,1-0.1,1.7C88.9,57,88,57,86.1,56.9c0-0.7,0-1,0-1.7c0.6,0,0.8,0,1.4,0
				c1.2-3.3,2.4-6.6,3.7-9.9c-0.6,0-0.9,0-1.5-0.1c0-0.6,0-1,0.1-1.6c2.1,0.1,4.3,0.2,6.4,0.4c0,0.6-0.1,1-0.1,1.6
				C95.6,45.6,95.3,45.6,94.7,45.6 M93,45.5C93,45.5,93,45.5,93,45.5c-0.7,1.8-1.4,3.6-2.1,5.4c1.4,0.1,2,0.1,3.4,0.2
				C93.9,49.2,93.5,47.3,93,45.5"/>
			<path class="st7" d="M110.1,49.1c-0.1,0.8-0.4,1.5-1,2c-0.5,0.5-1.2,0.8-2,0.9c0.5,1.7,1,3.4,1.4,5.1c0.6,0.1,0.9,0.1,1.4,0.2
				c-0.1,0.7-0.1,1-0.2,1.6c-1-0.2-1.6-0.2-2.6-0.4c-0.6-2.2-1.2-4.3-1.8-6.5c-0.7-0.1-1-0.1-1.7-0.2c-0.2,1.8-0.3,2.7-0.5,4.5
				c0.6,0.1,0.9,0.1,1.5,0.2c-0.1,0.7-0.1,1-0.2,1.7c-1.9-0.2-2.9-0.3-4.8-0.5c0.1-0.7,0.1-1,0.2-1.7c0.6,0.1,0.9,0.1,1.6,0.2
				c0.4-3.3,0.7-6.6,1.1-10c-0.7-0.1-1-0.1-1.7-0.2c0.1-0.7,0.1-1,0.2-1.7c2.1,0.2,3.1,0.3,5.1,0.6c1.6,0.2,2.7,0.6,3.3,1.3
				C110.1,47,110.3,47.9,110.1,49.1 M108.2,48.8c0.1-0.6,0-1.1-0.4-1.4c-0.3-0.3-0.9-0.6-1.6-0.6c-0.8-0.1-1.1-0.1-1.9-0.2
				c-0.2,1.5-0.3,2.3-0.4,3.8c0.7,0.1,1,0.1,1.7,0.2c0.8,0.1,1.4,0,1.8-0.2C107.9,50,108.2,49.5,108.2,48.8"/>
			<path class="st7" d="M114.4,47.9c0.8,1.8,1.2,2.7,1.9,4.5c1.3-1.5,1.9-2.2,3.2-3.6c-0.6-0.1-0.9-0.2-1.5-0.3
				c0.1-0.7,0.2-1,0.3-1.6c2,0.4,2.9,0.5,4.9,1c-0.1,0.7-0.2,1-0.3,1.6c-0.6-0.1-1-0.2-1.6-0.3c-1.5,1.6-3,3.2-4.4,4.9
				c-0.3,1.7-0.5,2.6-0.8,4.3c0.6,0.1,1,0.2,1.6,0.3c-0.1,0.7-0.2,1-0.3,1.6c-1.9-0.4-2.9-0.5-4.9-0.9l0.3-1.6
				c0.6,0.1,0.9,0.2,1.6,0.3c0.3-1.7,0.5-2.6,0.8-4.4c-0.9-2.1-1.8-4.1-2.7-6.1c-0.6-0.1-0.9-0.1-1.5-0.2c0.1-0.7,0.1-1,0.2-1.6
				c2,0.3,3,0.5,5.1,0.8c-0.1,0.7-0.2,1-0.3,1.6C115.3,48.1,115,48,114.4,47.9"/>
			<path class="st7" d="M54.2,82.2c0,0.9-0.2,1.7-0.7,2.3c-0.5,0.6-1.1,1.1-2,1.3l2.3,5.3h1.6V93h-2.9l-2.9-6.8h-1.8v5h1.7V93H44
				v-1.8h1.8V80.3H44v-1.8h5.4c1.7,0,2.9,0.3,3.6,0.9C53.8,80,54.2,80.9,54.2,82.2 M52.2,82.2c0-0.7-0.2-1.2-0.6-1.5
				c-0.4-0.3-1-0.5-1.8-0.5h-2v4.1h1.9c0.8,0,1.5-0.2,1.9-0.5C52,83.6,52.2,83,52.2,82.2"/>
			<polygon class="st7" points="65.9,82.7 65.9,80.3 60.3,80.3 60.3,84.6 65.1,84.6 65.1,86.4 60.3,86.4 60.3,91.2 65.9,91.2 
				65.9,88.5 67.5,88.5 67.5,93 56.6,93 56.6,91.2 58.3,91.2 58.3,80.3 56.6,80.3 56.6,78.4 67.5,78.4 67.5,82.7 			"/>
			<path class="st7" d="M78.5,82.2c0,0.7-0.1,1.3-0.4,1.8c-0.3,0.5-0.7,0.9-1.2,1.2c0.7,0.3,1.3,0.7,1.7,1.4
				c0.4,0.6,0.6,1.3,0.6,2.2c0,1.4-0.5,2.4-1.4,3.2c-0.9,0.7-2.3,1.1-4.1,1.1h-4.5v-1.8h1.6V80.3h-1.6v-1.8h4.6
				c1.6,0,2.8,0.3,3.5,0.9C78.1,80,78.5,80.9,78.5,82.2 M76.5,82.3c0-0.7-0.2-1.2-0.7-1.5c-0.4-0.3-1-0.5-1.8-0.5h-1.3v4.2h1.3
				C75.7,84.5,76.5,83.8,76.5,82.3 M77.2,88.7c0-0.8-0.3-1.4-0.8-1.8c-0.5-0.4-1.3-0.6-2.4-0.6h-1.3v4.9h0.8c0.8,0,1.4-0.1,1.9-0.2
				c0.5-0.1,0.9-0.3,1.2-0.7C77,89.9,77.2,89.4,77.2,88.7"/>
			<path class="st7" d="M88.4,80.2l3.5,11h1.5V93h-5.2v-1.8H90l-1-3.3h-4.7l-1,3.3h1.7V93h-5.2v-1.8h1.6l3.5-11h-1.6v-1.8H90v1.8
				H88.4z M86.7,80.2L86.7,80.2l-1.9,6h3.7L86.7,80.2z"/>
			<polygon class="st7" points="101.2,83.8 101.2,80.3 98.5,80.3 98.5,91.2 100.2,91.2 100.2,93 94.8,93 94.8,91.2 96.5,91.2 
				96.5,80.3 93.8,80.3 93.8,83.8 92.2,83.8 92.2,78.4 102.8,78.4 102.8,83.8 			"/>
			<polygon class="st7" points="113.2,82.7 113.2,80.3 107.6,80.3 107.6,84.6 112.5,84.6 112.5,86.4 107.6,86.4 107.6,91.2 
				113.2,91.2 113.2,88.5 114.8,88.5 114.8,93 104,93 104,91.2 105.7,91.2 105.7,80.3 104,80.3 104,78.4 114.8,78.4 114.8,82.7 			
				"/>
		</g>
	</g>
</g>
</svg>
