<?xml version="1.0" encoding="utf-8"?>
<!-- Generator: Adobe Illustrator 22.1.0, SVG Export Plug-In . SVG Version: 6.00 Build 0)  -->
<svg version="1.1" id="Layer_1" xmlns="http://www.w3.org/2000/svg" xmlns:xlink="http://www.w3.org/1999/xlink" x="0px" y="0px"
	 viewBox="0 0 242.3 45.8" style="enable-background:new 0 0 242.3 45.8;" xml:space="preserve">
<style type="text/css">
	.st0{clip-path:url(#SVGID_2_);fill:#D72027;}
	.st1{clip-path:url(#SVGID_2_);}
	.st2{clip-path:url(#SVGID_4_);fill:#D72027;}
</style>
<g id="Artwork_6_1_">
	<g>
		<defs>
			<rect id="SVGID_1_" x="3.9" y="2" width="234.8" height="41.8"/>
		</defs>
		<clipPath id="SVGID_2_">
			<use xlink:href="#SVGID_1_"  style="overflow:visible;"/>
		</clipPath>
		<polygon class="st0" points="3.9,3.3 3.9,10.6 16.1,10.6 16.1,42.4 24.4,42.4 24.4,10.6 37.1,10.6 37.1,3.3 		"/>
		<polygon class="st0" points="96.8,27.6 81.5,3.3 91.6,3.3 101.4,19.6 111.6,3.3 121.6,3.3 105.9,27.7 106,42.4 96.7,42.4 		"/>
		<path class="st0" d="M217.6,12.7l5.6,14.1H212L217.6,12.7z M212.1,3.3l-15.6,39.2h9.2l3.4-8.7H226l3.5,8.7h9.2L223.2,3.3H212.1z"
			/>
		<polygon class="st0" points="177.9,10.6 165.7,10.6 165.7,3.3 198.9,3.3 198.9,10.6 186.3,10.6 186.3,42.4 177.9,42.4 		"/>
		<g class="st1">
			<defs>
				<rect id="SVGID_3_" x="3.9" y="2" width="234.8" height="41.8"/>
			</defs>
			<clipPath id="SVGID_4_">
				<use xlink:href="#SVGID_3_"  style="overflow:visible;"/>
			</clipPath>
			<path class="st2" d="M45.4,8.3C49.1,4.5,54.2,2,60.2,2c12,0,20.9,9.6,20.9,21.3c0,5.1-2,9.6-5,13.2c-3.8,4.4-9.3,7.4-15.9,7.4
				c-12,0-20.9-9.2-20.9-20.5C39.3,17.4,41.6,12.2,45.4,8.3 M60.2,35.9c7.7,0,11.1-6.1,11.1-12.6c0-7.1-3.2-13.3-11.1-13.3
				c-8.3,0-11.1,7.3-11.1,13.3C49.1,29.8,52.5,35.9,60.2,35.9"/>
			<path class="st2" d="M127.9,8.3c3.7-3.9,8.8-6.3,14.8-6.3c12,0,20.9,9.6,20.9,21.3c0,5.1-2,9.6-5,13.2c-3.8,4.4-9.3,7.4-15.9,7.4
				c-12,0-20.9-9.2-20.9-20.5C121.8,17.4,124.2,12.2,127.9,8.3 M142.7,35.9c7.7,0,11.1-6.1,11.1-12.6c0-7.1-3.2-13.3-11.1-13.3
				c-8.3,0-11.1,7.3-11.1,13.3C131.6,29.8,135.1,35.9,142.7,35.9"/>
		</g>
	</g>
</g>
</svg>
