<?xml version="1.0" encoding="utf-8"?>
<!-- Generator: Adobe Illustrator 22.1.0, SVG Export Plug-In . SVG Version: 6.00 Build 0)  -->
<svg version="1.1" id="Layer_1" xmlns="http://www.w3.org/2000/svg" xmlns:xlink="http://www.w3.org/1999/xlink" x="0px" y="0px"
	 viewBox="0 0 278 80.5" style="enable-background:new 0 0 278 80.5;" xml:space="preserve">
<style type="text/css">
	.st0{clip-path:url(#SVGID_2_);fill:#D71920;}
	.st1{clip-path:url(#SVGID_2_);}
	.st2{clip-path:url(#SVGID_4_);fill:#FFFFFF;}
	.st3{clip-path:url(#SVGID_4_);fill:#58595B;}
	.st4{clip-path:url(#SVGID_4_);fill:#D71920;}
</style>
<g id="ToyotaCare_1_">
	<g>
		<defs>
			<rect id="SVGID_1_" width="270.9" height="80.5"/>
		</defs>
		<clipPath id="SVGID_2_">
			<use xlink:href="#SVGID_1_"  style="overflow:visible;"/>
		</clipPath>
		<rect class="st0" width="90.6" height="80.5"/>
		<g class="st1">
			<defs>
				<rect id="SVGID_3_" width="270.9" height="80.5"/>
			</defs>
			<clipPath id="SVGID_4_">
				<use xlink:href="#SVGID_3_"  style="overflow:visible;"/>
			</clipPath>
			<path class="st2" d="M12.7,56.5h3.5v8.9h2.5v-8.9h3.5v-2.1h-9.4V56.5z M67.1,54.4h-9.4v2.1h3.5v8.9h2.5v-8.9h3.5V54.4z
				 M42.9,54.4L40,58.8l-2.9-4.5h-2.8l4.4,6.9v4.1h2.5v-4.1l4.4-6.9H42.9z M28.5,54c-3.2,0-5.8,2.6-5.8,5.8c0,3.2,2.6,5.8,5.8,5.8
				c3.2,0,5.8-2.6,5.8-5.8C34.3,56.6,31.7,54,28.5,54 M28.5,63.5c-1.8,0-3.3-1.6-3.3-3.7c0-2,1.5-3.7,3.3-3.7c1.8,0,3.3,1.6,3.3,3.7
				C31.8,61.9,30.3,63.5,28.5,63.5 M51.5,54c-3.2,0-5.8,2.6-5.8,5.8c0,3.2,2.6,5.8,5.8,5.8c3.2,0,5.8-2.6,5.8-5.8
				C57.3,56.6,54.7,54,51.5,54 M51.5,63.5c-1.8,0-3.3-1.6-3.3-3.7c0-2,1.5-3.7,3.3-3.7c1.8,0,3.3,1.6,3.3,3.7
				C54.8,61.9,53.3,63.5,51.5,63.5 M74.2,54.4H71l-4.5,11h2.8l1-2.7h4.6l1,2.7h2.8L74.2,54.4z M71.1,60.8l1.6-4.1l1.5,4.1H71.1z"/>
			<path class="st2" d="M60.4,14.9c-3.4-1.5-8-2.5-13.6-2.6h-0.1c-0.5,0-1,0-1.5,0h0h0c-0.5,0-1,0-1.5,0h0
				c-5.6,0.2-10.3,1.1-13.7,2.7c-7.9,3.1-12.6,8.7-12.6,15.1c0,10.4,11.7,18.4,27.8,18.4c16.1,0,27.8-8.1,27.8-18.4
				C73.2,23.6,68.3,18,60.4,14.9 M61.4,20.1c0,2.9-4.5,4.8-9.7,5.6c-0.8-7.5-3.5-11.3-6.4-11.3c-2.9,0-5.5,3.8-6.4,11.3
				c-5.3-0.8-9.8-2.7-9.8-5.6c0-1.7,2.1-3.2,5.2-4.2c3-0.9,6.3-1.5,9.7-1.6c0.1,0,0.1,0,0.2,0c0.3,0,0.7,0,1,0h0c0.3,0,0.7,0,1,0
				c0.1,0,0.2,0,0.3,0c0.3,0,0.7,0,1,0c0,0,0.1,0,0.1,0c0.4,0,0.7,0,1.1,0.1h0c2.5,0.2,5,0.7,7.3,1.4C59.2,16.8,61.4,18.3,61.4,20.1
				 M49.6,30.3c0,6.8-2.3,10.3-4.3,10.3c-2,0-4.3-3.5-4.3-10.3v-0.1c1.4,0.1,2.8,0.2,4.3,0.2C46.8,30.4,48.3,30.3,49.6,30.3
				L49.6,30.3z M45.3,26.2c-1.3,0-2.6-0.1-4-0.2c0.7-5,2.6-7.2,4-7.2c1.4,0,3.3,2.2,4,7.2C48,26.1,46.6,26.2,45.3,26.2 M21.3,29.1
				c0-2.9,1.2-5.4,3.2-7.6c0.4,4,6,7.2,14.2,8.4c0,0.3,0,0.6,0,0.9c0,9.9,2.9,15,6,15.6C33.8,46.3,21.3,40,21.3,29.1 M46,46.5
				c3.1-0.6,6-5.7,6-15.6c0-0.3,0-0.6,0-1c8.2-1.1,13.8-4.4,14.1-8.4c2,2.1,3.2,4.7,3.2,7.6C69.3,40,56.9,46.3,46,46.5"/>
			<polygon class="st3" points="114,24.9 107.2,24.9 107.2,20.7 125.8,20.7 125.8,24.9 119,24.9 119,43.4 114,43.4 			"/>
			<path class="st3" d="M131.2,26.6c5.2,0,8.5,3.4,8.5,8.7c0,5.2-3.3,8.6-8.5,8.6c-5.1,0-8.5-3.4-8.5-8.6
				C122.7,30,126,26.6,131.2,26.6 M131.2,40.5c3.1,0,4-2.6,4-5.2c0-2.6-0.9-5.3-4-5.3c-3,0-4,2.6-4,5.3
				C127.2,37.8,128.1,40.5,131.2,40.5"/>
			<path class="st3" d="M150.1,45.5c-1,2.6-2.5,3.7-5.6,3.7c-0.9,0-1.8-0.1-2.8-0.2v-3.7c0.9,0.1,1.7,0.2,2.6,0.2
				c1.6-0.2,2.1-1.8,1.6-3.1L140.1,27h4.8l3.7,11.2h0.1l3.6-11.2h4.7L150.1,45.5z"/>
			<path class="st3" d="M165.6,26.6c5.2,0,8.5,3.4,8.5,8.7c0,5.2-3.3,8.6-8.5,8.6c-5.1,0-8.5-3.4-8.5-8.6
				C157.1,30,160.5,26.6,165.6,26.6 M165.6,40.5c3.1,0,4-2.6,4-5.2c0-2.6-0.9-5.3-4-5.3c-3,0-4,2.6-4,5.3
				C161.6,37.8,162.6,40.5,165.6,40.5"/>
			<path class="st3" d="M182.2,27h3.3v3h-3.3v8.1c0,1.5,0.4,1.9,1.9,1.9c0.5,0,0.9,0,1.4-0.1v3.5c-0.8,0.1-1.7,0.2-2.6,0.2
				c-2.8,0-5.2-0.6-5.2-3.9V30H175v-3h2.7v-4.9h4.5V27z"/>
			<path class="st3" d="M187.7,32c0.3-4.2,4-5.5,7.7-5.5c3.3,0,7.2,0.7,7.2,4.7v8.5c0,1.5,0.2,3,0.6,3.7h-4.6
				c-0.2-0.5-0.3-1-0.3-1.6c-1.4,1.5-3.5,2-5.5,2c-3.1,0-5.6-1.6-5.6-4.9c0-3.7,2.8-4.6,5.6-5c2.8-0.4,5.3-0.3,5.3-2.2
				c0-1.9-1.3-2.2-2.9-2.2c-1.7,0-2.8,0.7-3,2.5H187.7z M198.1,35.4c-0.8,0.7-2.3,0.7-3.7,1c-1.4,0.3-2.7,0.8-2.7,2.4
				c0,1.7,1.3,2.1,2.8,2.1c3.5,0,3.7-2.8,3.7-3.8V35.4z"/>
			<path class="st4" d="M222.3,27.6c-0.6-3.2-3.2-4.8-6.3-4.8c-5.4,0-7.7,4.4-7.7,9.2c0,5.2,2.3,9.5,7.7,9.5c4,0,6.3-2.8,6.5-6.5h3
				c-0.6,5.7-4.1,9.1-9.8,9.1c-7,0-10.5-5.2-10.5-11.8c0-6.6,3.7-11.9,10.7-11.9c4.7,0,8.6,2.5,9.3,7.4H222.3z"/>
			<path class="st4" d="M242.4,43.3c-0.5,0.3-1.1,0.4-1.9,0.4c-1.4,0-2.3-0.8-2.3-2.5c-1.5,1.7-3.5,2.5-5.8,2.5
				c-3,0-5.4-1.3-5.4-4.6c0-3.7,2.8-4.5,5.6-5c3-0.6,5.5-0.4,5.5-2.4c0-2.4-1.9-2.7-3.7-2.7c-2.3,0-4,0.7-4.1,3.1h-2.7
				c0.2-4.1,3.3-5.5,7-5.5c3,0,6.2,0.7,6.2,4.5v8.4c0,1.3,0,1.8,0.9,1.8c0.2,0,0.5,0,0.8-0.2V43.3z M238,34.9
				c-1,0.8-3.1,0.8-4.9,1.1c-1.8,0.3-3.3,1-3.3,3c0,1.8,1.5,2.4,3.2,2.4c3.6,0,5-2.2,5-3.7V34.9z"/>
			<path class="st4" d="M244.7,27h2.5v3.5h0.1c1.3-2.6,3.1-3.9,6-3.8v2.9c-4.4,0-5.9,2.5-5.9,6.6v7.3h-2.7V27z"/>
			<path class="st4" d="M268.4,38.2c-0.7,3.6-3.3,5.6-7,5.6c-5.2,0-7.7-3.6-7.9-8.6c0-4.9,3.2-8.5,7.7-8.5c5.8,0,7.6,5.4,7.4,9.4
				h-12.3c-0.1,2.9,1.5,5.4,5.1,5.4c2.2,0,3.8-1.1,4.3-3.2H268.4z M265.8,33.6c-0.1-2.6-2.1-4.6-4.7-4.6c-2.8,0-4.5,2.1-4.7,4.6
				H265.8z"/>
			<polygon class="st3" points="108.6,53.8 109.8,53.8 114.5,61.1 114.6,61.1 114.6,53.8 115.7,53.8 115.7,62.8 114.4,62.8 
				109.7,55.6 109.7,55.6 109.7,62.8 108.6,62.8 			"/>
			<path class="st3" d="M120.4,56.2c2.1,0,3.1,1.5,3.1,3.4c0,1.9-1.1,3.4-3.1,3.4s-3.1-1.5-3.1-3.4
				C117.3,57.6,118.3,56.2,120.4,56.2 M120.4,62c1.1,0,2-0.9,2-2.4c0-1.6-0.9-2.5-2-2.5c-1.1,0-2,0.9-2,2.5
				C118.4,61.1,119.3,62,120.4,62"/>
			<path class="st3" d="M134.3,56.5c-0.2-1.3-1.3-1.9-2.5-1.9c-2.1,0-3,1.8-3,3.6c0,2,0.9,3.7,3,3.7c1.6,0,2.5-1.1,2.6-2.6h1.2
				c-0.2,2.2-1.6,3.6-3.9,3.6c-2.8,0-4.1-2.1-4.1-4.7c0-2.6,1.5-4.7,4.2-4.7c1.9,0,3.4,1,3.7,2.9H134.3z"/>
			<path class="st3" d="M139.8,56.2c2.1,0,3.1,1.5,3.1,3.4c0,1.9-1.1,3.4-3.1,3.4c-2.1,0-3.1-1.5-3.1-3.4
				C136.7,57.6,137.8,56.2,139.8,56.2 M139.8,62c1.1,0,2-0.9,2-2.4c0-1.6-0.9-2.5-2-2.5s-2,0.9-2,2.5C137.8,61.1,138.7,62,139.8,62"
				/>
			<path class="st3" d="M145,60.7c0,0.9,0.9,1.2,1.7,1.2c0.7,0,1.6-0.2,1.6-1c0-0.8-1.1-1-2.1-1.2c-1.1-0.2-2.1-0.6-2.1-1.8
				c0-1.3,1.3-1.8,2.4-1.8c1.4,0,2.6,0.5,2.7,2h-1.1c-0.1-0.8-0.8-1.1-1.5-1.1c-0.6,0-1.4,0.2-1.4,0.8c0,0.8,1.1,0.9,2.1,1.1
				c1.1,0.2,2.1,0.6,2.1,1.8c0,1.5-1.4,2-2.8,2c-1.5,0-2.7-0.6-2.7-2.2H145z"/>
			<path class="st3" d="M152.3,56.3h1.3v0.9h-1.3v4c0,0.5,0.1,0.6,0.8,0.6h0.5v0.9h-0.8c-1.1,0-1.5-0.2-1.5-1.4v-4.1h-1.1v-0.9h1.1
				v-1.9h1.1V56.3z"/>
			<path class="st3" d="M163.2,56.5c-0.1-1.3-1-1.8-2.2-1.8c-1,0-2,0.4-2,1.5c0,1.1,1.4,1.3,2.9,1.6c1.4,0.3,2.9,0.8,2.9,2.6
				c0,1.9-1.9,2.7-3.5,2.7c-2,0-3.7-1-3.7-3.2h1.1c0,1.5,1.2,2.1,2.6,2.1c1.1,0,2.3-0.3,2.3-1.6c0-1.2-1.4-1.4-2.9-1.8
				c-1.4-0.3-2.9-0.7-2.9-2.4c0-1.8,1.6-2.6,3.2-2.6c1.8,0,3.2,0.9,3.3,2.8H163.2z"/>
			<path class="st3" d="M171.6,60.7c-0.3,1.4-1.3,2.2-2.8,2.2c-2.1,0-3-1.4-3.1-3.4c0-1.9,1.3-3.4,3-3.4c2.3,0,3,2.1,2.9,3.7h-4.8
				c0,1.1,0.6,2.1,2,2.1c0.9,0,1.5-0.4,1.7-1.3H171.6z M170.5,58.9c-0.1-1-0.8-1.8-1.9-1.8c-1.1,0-1.8,0.8-1.9,1.8H170.5z"/>
			<path class="st3" d="M172.9,56.3h1v1.4h0c0.5-1,1.2-1.6,2.4-1.5v1.1c-1.7,0-2.3,1-2.3,2.6v2.9h-1.1V56.3z"/>
			<polygon class="st3" points="180.5,62.8 179.4,62.8 177,56.3 178.2,56.3 180,61.7 180,61.7 181.8,56.3 182.9,56.3 			"/>
			<path class="st3" d="M185,55.1H184v-1.3h1.1V55.1z M184,56.3h1.1v6.5H184V56.3z"/>
			<path class="st3" d="M191.1,58.4c-0.2-0.8-0.7-1.3-1.6-1.3c-1.5,0-2,1.2-2,2.5c0,1.2,0.5,2.4,1.9,2.4c1,0,1.6-0.6,1.8-1.6h1.1
				c-0.2,1.6-1.2,2.5-2.9,2.5c-2,0-3-1.4-3-3.3c0-1.9,1-3.5,3.1-3.5c1.5,0,2.6,0.7,2.8,2.2H191.1z"/>
			<path class="st3" d="M199.1,60.7c-0.3,1.4-1.3,2.2-2.8,2.2c-2.1,0-3-1.4-3.1-3.4c0-1.9,1.3-3.4,3-3.4c2.3,0,3,2.1,2.9,3.7h-4.8
				c0,1.1,0.6,2.1,2,2.1c0.9,0,1.5-0.4,1.7-1.3H199.1z M198.1,58.9c-0.1-1-0.8-1.8-1.9-1.8c-1.1,0-1.8,0.8-1.9,1.8H198.1z"/>
			<path class="st3" d="M208.7,61.7c-0.5,0.8-1.6,1.3-2.5,1.3c-2.4,0-2.8-1.7-2.8-2.4c0-1.4,1-2.1,2.1-2.7c-0.5-0.7-1-1.2-1-2.1
				c0-1,0.7-1.8,2-1.8c1.1,0,2.2,0.6,2.2,1.8c0,1.1-0.8,1.8-1.7,2.3l1.6,2c0.2-0.4,0.3-0.9,0.3-1.4h1c-0.1,1.1-0.2,1.4-0.6,2.2
				l1.7,2h-1.4L208.7,61.7z M206.1,58.5c-0.8,0.5-1.5,1-1.5,2c0,0.9,0.8,1.5,1.7,1.5c0.8,0,1.5-0.4,1.9-1.1L206.1,58.5z M207.6,55.7
				c0-0.5-0.4-1-1-1c-0.5,0-1,0.3-1,1c0,0.5,0.5,1.1,0.9,1.6C206.9,57,207.6,56.5,207.6,55.7"/>
			<path class="st3" d="M214.6,53.8h4.2c1.7,0,2.7,0.9,2.7,2.3c0,1.1-0.5,2-1.6,2.3v0c1,0.2,1.3,1,1.3,1.8c0.1,0.9,0,1.9,0.5,2.5
				h-1.3c-0.3-0.4-0.2-1.3-0.3-2.2c-0.1-0.9-0.3-1.6-1.5-1.6h-2.9v3.8h-1.2V53.8z M218.3,58c1.1,0,2.1-0.3,2.1-1.6
				c0-0.9-0.5-1.5-1.6-1.5h-3V58H218.3z"/>
			<path class="st3" d="M225.9,56.2c2.1,0,3.1,1.5,3.1,3.4c0,1.9-1.1,3.4-3.1,3.4c-2.1,0-3.1-1.5-3.1-3.4
				C222.7,57.6,223.8,56.2,225.9,56.2 M225.9,62c1.1,0,2-0.9,2-2.4c0-1.6-0.9-2.5-2-2.5c-1.1,0-2,0.9-2,2.5
				C223.9,61.1,224.8,62,225.9,62"/>
			<path class="st3" d="M236.2,62.8c-0.2,0.1-0.4,0.2-0.8,0.2c-0.6,0-0.9-0.3-0.9-1c-0.6,0.7-1.4,1-2.3,1c-1.2,0-2.1-0.5-2.1-1.8
				c0-1.5,1.1-1.8,2.2-2c1.2-0.2,2.2-0.1,2.2-0.9c0-0.9-0.8-1.1-1.4-1.1c-0.9,0-1.6,0.3-1.6,1.2h-1.1c0.1-1.6,1.3-2.2,2.7-2.2
				c1.2,0,2.4,0.3,2.4,1.8v3.3c0,0.5,0,0.7,0.3,0.7c0.1,0,0.2,0,0.3-0.1V62.8z M234.4,59.4c-0.4,0.3-1.2,0.3-1.9,0.4
				c-0.7,0.1-1.3,0.4-1.3,1.2c0,0.7,0.6,1,1.3,1c1.4,0,2-0.9,2-1.5V59.4z"/>
			<path class="st3" d="M243.1,62.8H242v-0.9h0c-0.4,0.7-1.2,1-2.1,1c-2,0-3-1.6-3-3.4c0-1.8,1-3.4,3-3.4c0.7,0,1.6,0.2,2.1,1h0
				v-3.3h1.1V62.8z M240.1,62c1.4,0,2-1.2,2-2.4c0-1.3-0.6-2.5-2-2.5c-1.5,0-1.9,1.2-1.9,2.5C238.1,60.8,238.7,62,240.1,62"/>
			<path class="st3" d="M245.5,60.7c0,0.9,0.9,1.2,1.7,1.2c0.7,0,1.6-0.2,1.6-1c0-0.8-1-1-2.1-1.2c-1.1-0.2-2.1-0.6-2.1-1.8
				c0-1.3,1.3-1.8,2.4-1.8c1.4,0,2.6,0.5,2.7,2h-1.1c-0.1-0.8-0.8-1.1-1.5-1.1c-0.6,0-1.4,0.2-1.4,0.8c0,0.8,1.1,0.9,2.1,1.1
				c1.1,0.2,2.1,0.6,2.1,1.8c0,1.5-1.4,2-2.8,2c-1.5,0-2.7-0.6-2.7-2.2H245.5z"/>
			<path class="st3" d="M252.4,55.1h-1.1v-1.3h1.1V55.1z M251.4,56.3h1.1v6.5h-1.1V56.3z"/>
			<path class="st3" d="M260,62.8h-1.1v-0.9h0c-0.3,0.7-1.2,1-2.1,1c-2,0-3-1.6-3-3.4c0-1.8,1-3.4,3-3.4c0.7,0,1.6,0.2,2.1,1h0v-3.3
				h1.1V62.8z M257,62c1.4,0,2-1.2,2-2.4c0-1.3-0.6-2.5-2-2.5c-1.5,0-1.9,1.2-1.9,2.5C255,60.8,255.6,62,257,62"/>
			<path class="st3" d="M267.2,60.7c-0.3,1.4-1.3,2.2-2.8,2.2c-2.1,0-3-1.4-3.1-3.4c0-1.9,1.3-3.4,3-3.4c2.3,0,3,2.1,2.9,3.7h-4.8
				c0,1.1,0.6,2.1,2,2.1c0.9,0,1.5-0.4,1.7-1.3H267.2z M266.2,58.9c0-1-0.8-1.8-1.9-1.8c-1.1,0-1.8,0.8-1.9,1.8H266.2z"/>
			<polygon class="st3" points="269.3,55.3 270.6,54.8 270.9,55.4 269.5,55.9 270.3,57 269.8,57.4 268.9,56.2 268.1,57.4 267.6,57 
				268.4,55.9 267.1,55.4 267.3,54.8 268.6,55.3 268.6,53.9 269.3,53.9 			"/>
		</g>
	</g>
</g>
</svg>
