<?xml version="1.0" encoding="utf-8"?>
<!-- Generator: Adobe Illustrator 22.1.0, SVG Export Plug-In . SVG Version: 6.00 Build 0)  -->
<svg version="1.1" id="Layer_1" xmlns="http://www.w3.org/2000/svg" xmlns:xlink="http://www.w3.org/1999/xlink" x="0px" y="0px"
	 viewBox="0 0 278 62.3" style="enable-background:new 0 0 278 62.3;" xml:space="preserve">
<style type="text/css">
	.st0{clip-path:url(#SVGID_2_);fill:#ED1C24;}
	.st1{clip-path:url(#SVGID_2_);}
	.st2{clip-path:url(#SVGID_4_);fill:#ED1C24;}
	.st3{clip-path:url(#SVGID_4_);fill:#414042;}
	.st4{clip-path:url(#SVGID_4_);fill:#6D6E71;}
	.st5{clip-path:url(#SVGID_6_);}
	.st6{clip-path:url(#SVGID_2_);fill:#414042;}
	.st7{clip-path:url(#SVGID_10_);fill:#414042;}
</style>
<g id="walkertoyota.com_1_">
	<g>
		<defs>
			<rect id="SVGID_1_" x="1.5" y="2.3" width="274.2" height="57.9"/>
		</defs>
		<clipPath id="SVGID_2_">
			<use xlink:href="#SVGID_1_"  style="overflow:visible;"/>
		</clipPath>
		<polygon class="st0" points="109.6,2.3 109.6,6.8 116.8,6.8 116.8,26.5 122.1,26.5 122.1,6.8 129.4,6.8 129.4,2.3 		"/>
		<g class="st1">
			<defs>
				<rect id="SVGID_3_" x="1.5" y="2.3" width="274.2" height="57.9"/>
			</defs>
			<clipPath id="SVGID_4_">
				<use xlink:href="#SVGID_3_"  style="overflow:visible;"/>
			</clipPath>
			<path class="st2" d="M133.6,8.5c5.5,0,9.1,3.7,9.1,9.2c0,5.5-3.6,9.2-9.1,9.2c-5.5,0-9-3.7-9-9.2C124.6,12.1,128.2,8.5,133.6,8.5
				 M133.6,23.3c3.3,0,4.3-2.8,4.3-5.6c0-2.8-1-5.6-4.3-5.6c-3.2,0-4.2,2.8-4.2,5.6C129.4,20.5,130.4,23.3,133.6,23.3"/>
			<path class="st2" d="M153.4,28.7c-1,2.8-2.7,4-6,4c-1,0-2-0.1-2.9-0.2v-4c0.9,0.1,1.9,0.2,2.8,0.2c1.7-0.2,2.2-1.9,1.7-3.3
				L142.8,9h5.1l4,12h0.1l3.8-12h5L153.4,28.7z"/>
			<path class="st2" d="M169.8,8.5c5.5,0,9.1,3.7,9.1,9.2c0,5.5-3.6,9.2-9.1,9.2c-5.5,0-9-3.7-9-9.2C160.8,12.1,164.3,8.5,169.8,8.5
				 M169.8,23.3c3.3,0,4.3-2.8,4.3-5.6c0-2.8-1-5.6-4.3-5.6c-3.2,0-4.2,2.8-4.2,5.6C165.6,20.5,166.6,23.3,169.8,23.3"/>
			<path class="st2" d="M187.1,9h3.5v3.2h-3.5v8.7c0,1.6,0.4,2,2,2c0.5,0,1,0,1.5-0.1v3.8c-0.8,0.1-1.9,0.2-2.8,0.2
				c-2.9,0-5.5-0.7-5.5-4.2V12.2h-2.9V9h2.9V3.7h4.8V9z"/>
			<path class="st2" d="M192.5,14.3c0.3-4.5,4.3-5.9,8.2-5.9c3.5,0,7.7,0.8,7.7,5v9.1c0,1.6,0.2,3.2,0.6,3.9h-4.9
				c-0.2-0.5-0.3-1.1-0.3-1.7c-1.5,1.6-3.8,2.2-5.9,2.2c-3.3,0-6-1.7-6-5.2c0-4,3-4.9,6-5.3c2.9-0.4,5.7-0.3,5.7-2.3
				c0-2.1-1.4-2.4-3.1-2.4c-1.8,0-3,0.7-3.2,2.6H192.5z M203.6,17.9c-0.8,0.7-2.5,0.7-4,1c-1.5,0.3-2.8,0.8-2.8,2.6
				c0,1.8,1.4,2.2,2.9,2.2c3.8,0,3.9-3,3.9-4V17.9z"/>
			<rect x="54.8" y="2.8" class="st3" width="5" height="23.6"/>
			<polygon class="st3" points="62.6,2.9 67.4,2.9 67.4,15.6 73.7,9.1 79.8,9.1 73,15.6 80.1,26.4 74.1,26.4 69.5,19 67.4,20.9 
				67.4,26.4 62.6,26.4 			"/>
			<path class="st3" d="M92.8,9.3c1.3,0.5,2.4,1.4,3.3,2.6c0.8,1,1.3,2.2,1.5,3.6c0.1,0.8,0.2,2,0.2,3.5H83.9c0.1,1.8,0.7,3,2,3.7
				c0.8,0.4,1.7,0.7,2.7,0.7c1.1,0,2-0.3,2.8-0.8c0.4-0.3,0.7-0.7,1-1.2h5.1c-0.1,1-0.7,2.1-1.8,3.2c-1.7,1.7-4.1,2.5-7.1,2.5
				c-2.5,0-4.7-0.7-6.7-2.1c-1.9-1.4-2.9-3.8-2.9-7c0-3,0.9-5.3,2.6-7c1.7-1.6,4-2.4,6.8-2.4C89.9,8.5,91.4,8.8,92.8,9.3 M85.3,13.3
				c-0.7,0.7-1.1,1.6-1.3,2.7h8.5c-0.1-1.2-0.5-2.1-1.3-2.8c-0.8-0.6-1.8-0.9-2.9-0.9C87,12.3,86,12.6,85.3,13.3"/>
			<path class="st3" d="M109.9,8.6c0.1,0,0.2,0,0.4,0v4.7c-0.3,0-0.6-0.1-0.8-0.1c-0.2,0-0.4,0-0.6,0c-2,0-3.3,0.6-4,1.8
				c-0.4,0.7-0.6,1.7-0.6,3.1v8.3h-5V9h4.7v3c0.8-1.2,1.4-2,2-2.4c0.9-0.7,2.1-1.1,3.6-1.1C109.8,8.6,109.9,8.6,109.9,8.6"/>
			<polygon class="st3" points="29.6,26.4 22.7,26.4 19.2,10.2 19.1,10.2 15.5,26.4 8.6,26.4 1.5,2.3 7.8,2.3 12,20 12.1,20 
				16.2,3.7 22.2,3.7 26.2,20 26.3,20 31,2.3 36.8,2.3 			"/>
			<path class="st3" d="M35.9,14.4c0.3-4.5,4.3-5.9,8.2-5.9c3.5,0,7.7,0.8,7.7,5v9.1c0,1.6,0.2,3.2,0.6,3.9h-4.9
				c-0.2-0.5-0.3-1.1-0.3-1.7c-1.5,1.6-3.8,2.2-5.9,2.2c-3.3,0-6-1.7-6-5.2c0-4,3-4.9,6-5.3c2.9-0.4,5.7-0.3,5.7-2.3
				c0-2.1-1.4-2.4-3.1-2.4c-1.8,0-3,0.7-3.2,2.6H35.9z M47,18c-0.8,0.7-2.5,0.7-4,1c-1.5,0.3-2.8,0.8-2.8,2.6c0,1.8,1.4,2.2,2.9,2.2
				c3.8,0,3.9-3,3.9-4V18z"/>
			<polygon class="st4" points="126.5,39.8 129.5,39.8 127.2,51 133.8,51 133.3,53.6 123.6,53.6 			"/>
			<path class="st4" d="M137.1,49.2c0,0.3,0,0.4,0,0.6c0,1.2,0.7,1.9,2.2,1.9c1.1,0,1.6-0.7,2-1.4h2.7c-0.9,2.2-2.3,3.4-5.2,3.4
				c-2.7,0-4.4-1.5-4.4-4.4c0-3.2,2.1-6.2,5.5-6.2c2.8,0,4.6,1.5,4.6,4.4c0,0.5-0.1,1.1-0.2,1.6H137.1z M142,47.5
				c0-1-0.3-2.1-1.9-2.1c-1.5,0-2.3,1-2.7,2.1H142z"/>
			<path class="st4" d="M150.2,43.6h2l-0.4,1.8h-1.9l-1,5c0,0.2-0.1,0.4-0.1,0.5c0,0.7,0.5,0.7,0.9,0.7c0.3,0,0.7,0,1-0.1l-0.5,2.1
				c-0.6,0.1-1.1,0.1-1.7,0.1c-1.3,0-2.6-0.4-2.6-2c0-0.3,0.1-0.6,0.1-0.9l1.1-5.3h-1.8l0.4-1.8h1.8l0.6-3h2.7L150.2,43.6z"/>
			<path class="st4" d="M153.7,39.8h2.5l-0.5,2.6c-0.3,1.4-0.9,2.8-2.8,2.9l0.2-1.1c0.9-0.1,1.2-0.8,1.4-1.8h-1.3L153.7,39.8z"/>
			<path class="st4" d="M161.2,46.5c0-0.8-0.5-1.3-1.5-1.3c-1,0-1.7,0.3-1.7,1c0,0.4,0.3,0.7,1.3,1l1.4,0.4c1.5,0.5,2.6,1.2,2.6,2.9
				c0,2.5-2.4,3.4-4.7,3.4c-1.9,0-4.2-0.8-4.2-3.1v-0.4h2.5v0.3c0,0.9,1,1.4,2,1.4c0.8,0,1.7-0.3,1.7-1.2c0-0.7-0.4-0.9-1-1.1
				l-2.1-0.7c-1.4-0.4-2.2-1-2.2-2.5c0-2.4,2.5-3.2,4.4-3.2c2.2,0,4.1,0.6,4.1,3.2H161.2z"/>
			<path class="st4" d="M179.5,52.2L179.5,52.2c-0.9,1.2-2.2,1.7-3.5,1.7c-3.9,0-6.1-2.2-6.1-6.1c0-4.5,2.9-8.3,7.5-8.3
				c3.2,0,5.8,1.5,5.8,4.9h-3c-0.1-1.7-1.1-2.3-2.8-2.3c-3.1,0-4.5,3.1-4.5,5.8c0,1.9,0.9,3.5,3.1,3.5c2.3,0,3.3-1.2,3.8-3h-3.2
				l0.5-2.3h5.8l-1.6,7.4h-1.9V52.2z"/>
			<path class="st4" d="M189.4,43.3c2.7,0,4.6,1.3,4.6,4.2c0,3.5-2.2,6.3-5.8,6.3c-2.8,0-4.6-1.4-4.6-4.3
				C183.6,46.2,185.8,43.3,189.4,43.3 M188.3,51.8c2,0,2.9-2.5,2.9-4.2c0-1.3-0.6-2.2-2-2.2c-2,0-2.9,2.5-2.9,4.1
				C186.4,50.7,187,51.8,188.3,51.8"/>
			<path class="st4" d="M201.3,39.8h5.5c2.8,0,4.8,1,4.8,4c0,3-2.5,4.8-5.4,4.8h-3.7l-1,4.9h-3L201.3,39.8z M203,46.3h3.1
				c1.5,0,2.5-0.8,2.5-2.4c0-1.4-1.1-1.7-2.1-1.7h-2.6L203,46.3z"/>
			<polygon class="st4" points="213.7,39.8 216.4,39.8 213.5,53.6 210.7,53.6 			"/>
			<path class="st4" d="M216.6,46.6c0.3-2.5,2.5-3.3,4.7-3.3c1.8,0,4.2,0.4,4.1,2.6c0,0.4-0.1,1.1-0.2,1.7l-0.9,4
				c-0.1,0.3-0.1,1-0.1,1.3c0,0.2,0,0.4,0.1,0.6h-2.7v-1c-0.8,0.8-1.9,1.3-3,1.3c-2.2,0-3.2-1.2-3.2-2.6c0-1.9,1.4-3.1,3.8-3.4
				c2.6-0.3,3.8-0.2,3.8-1.4c0-1-1-1.2-1.7-1.2c-1,0-1.9,0.5-2,1.5H216.6z M222.3,48.8c-0.7,0.4-1.5,0.4-2.3,0.5c-1,0.1-2,0.4-2,1.6
				c0,0.8,0.7,1.1,1.5,1.1c1.7,0,2.3-1.2,2.6-2.3L222.3,48.8z"/>
			<path class="st4" d="M233.4,47.1c0-1.2-0.6-1.7-1.8-1.7c-2.1,0-2.8,2.5-2.8,4.2c0,1.2,0.5,2.2,1.9,2.2c1.2,0,1.9-0.9,2.2-1.9h2.7
				c-0.8,2.5-2.6,3.9-5.2,3.9c-2.8,0-4.4-1.4-4.4-4.3c0-3.4,2-6.2,5.6-6.2c2.4,0,4.4,1.1,4.5,3.7H233.4z"/>
			<path class="st4" d="M239.1,49.2c0,0.3,0,0.4,0,0.6c0,1.2,0.7,1.9,2.2,1.9c1.1,0,1.6-0.7,2-1.4h2.7c-0.9,2.2-2.3,3.4-5.2,3.4
				c-2.7,0-4.4-1.5-4.4-4.4c0-3.2,2.1-6.2,5.5-6.2c2.8,0,4.6,1.5,4.6,4.4c0,0.5-0.1,1.1-0.2,1.6H239.1z M244,47.5
				c0-1-0.3-2.1-1.9-2.1c-1.5,0-2.3,1-2.7,2.1H244z"/>
			<path class="st4" d="M253.7,46.5c0-0.8-0.5-1.3-1.5-1.3c-1,0-1.7,0.3-1.7,1c0,0.4,0.3,0.7,1.3,1l1.4,0.4c1.5,0.5,2.6,1.2,2.6,2.9
				c0,2.5-2.4,3.4-4.7,3.4c-1.9,0-4.2-0.8-4.2-3.1v-0.4h2.5v0.3c0,0.9,1,1.4,2,1.4c0.8,0,1.7-0.3,1.7-1.2c0-0.7-0.4-0.9-1-1.1
				l-2.1-0.7c-1.4-0.4-2.2-1-2.2-2.5c0-2.4,2.5-3.2,4.4-3.2c2.2,0,4.1,0.6,4.1,3.2H253.7z"/>
		</g>
		<g class="st1">
			<defs>
				<path id="SVGID_5_" d="M95.4,48c0.3,0,0.5,0,0.6,0C96,48,96,48,96,48.1c0,0.2-0.1,0.8-0.1,1.1c-0.1,0.4-0.2,1.2-0.3,1.6
					c-0.1,0.2-0.2,0.9-0.5,1.4c-0.2,0.5-0.6,0.8-1,0.8c-0.4,0-0.7-0.3-0.9-0.7c-0.3-0.6-0.5-1.3-0.6-1.5c-0.1-0.4-0.2-1.1-0.3-1.5
					c-0.1-0.4-0.1-1.1-0.1-1.2c0,0,0-0.1,0.1-0.1c0,0,0.1,0,0.2,0c0.1,0,1.1,0,1.7,0c0.5,0,0.6,0,0.8,0C95.1,48,95.2,48,95.4,48
					 M96.2,56.5C96.1,56.5,96.1,56.5,96.2,56.5c-0.1-0.1-0.1-0.2-0.1-0.2c0,0,0.2-0.2,0.4-0.6c0.1-0.2,0.2-0.4,0.3-0.6
					c0.1-0.3,0.3-0.6,0.4-0.9c0.2-0.5,0.4-1.1,0.5-1.5c0.1-0.4,0.2-0.8,0.3-1.3c0.1-0.4,0.1-0.9,0.2-1.3c0.1-0.5,0.1-0.9,0.1-1.1
					c0-0.7,0.1-1.1,0.1-1.2c0-0.1,0.1-0.1,0.1-0.2c0,0,0.8-0.1,1.5-0.3c0.6-0.1,1.2-0.3,1.6-0.4c0.2,0,0.4-0.1,0.6-0.2
					c0.4-0.1,0.9-0.3,1.4-0.5c0.3-0.2,0.7-0.3,0.9-0.5c0.3-0.2,0.6-0.4,0.8-0.5c0.2-0.2,0.4-0.4,0.6-0.5c0.2-0.2,0.4-0.4,0.4-0.5
					c0-0.1,0.1-0.1,0.1-0.1c0,0,0-0.1,0.1-0.1c0,0,0,0,0.1,0c0,0,0.1,0,0.1,0c0,0,0.1,0,0.1,0.1c0.1,0.1,0.3,0.8,0.4,1
					c0.1,0.3,0.2,0.6,0.3,1.1c0,0.2,0,0.3,0.1,0.5c0,0.3,0,0.5,0,0.7c0,0.6-0.1,1.3-0.2,1.7c-0.1,0.3-0.2,0.8-0.4,1.2
					c-0.3,0.5-0.6,1-0.8,1.3c-0.1,0.2-0.4,0.5-0.8,0.9c-0.1,0.1-0.3,0.3-0.5,0.5c-0.1,0.1-0.3,0.3-0.5,0.4c-0.2,0.1-0.4,0.3-0.6,0.4
					c-0.3,0.2-0.7,0.5-1,0.7c-0.5,0.3-1,0.5-1.4,0.7c-0.4,0.1-0.7,0.3-1,0.4c-0.4,0.1-0.8,0.2-1.1,0.3c-1.3,0.4-2.4,0.5-2.8,0.5
					c0,0-0.1,0-0.1,0C96.3,56.6,96.2,56.5,96.2,56.5 M91.8,56.5c-0.5,0-1.5-0.2-2.8-0.5c-0.7-0.2-1.4-0.4-2.1-0.7
					c-0.5-0.2-0.9-0.5-1.4-0.7c-0.3-0.2-0.5-0.3-0.8-0.5c-0.3-0.2-0.6-0.4-0.8-0.6c-0.4-0.3-0.7-0.6-0.9-0.9
					c-0.4-0.4-0.7-0.7-0.8-0.9c-0.2-0.2-0.5-0.7-0.8-1.3c-0.2-0.4-0.3-0.8-0.4-1.2c-0.1-0.4-0.2-1.1-0.2-1.7c0-0.2,0-0.7,0.1-1.2
					c0.1-0.5,0.2-0.9,0.3-1.1c0.1-0.2,0.2-0.5,0.3-0.7c0.1-0.1,0.1-0.3,0.2-0.4c0,0,0.1-0.1,0.1-0.1c0,0,0.1,0,0.1,0c0,0,0,0,0.1,0
					c0,0,0,0,0.1,0.1c0,0,0.1,0.1,0.1,0.1c0.1,0.1,0.2,0.2,0.3,0.4c0.2,0.2,0.4,0.4,0.7,0.6c0.1,0.1,0.4,0.3,0.7,0.5
					c0.3,0.2,0.6,0.4,1,0.5c0.8,0.4,1.6,0.6,2,0.7c0.4,0.1,1,0.2,1.6,0.4c0.7,0.1,1.4,0.2,1.5,0.2c0.1,0,0.2,0.1,0.2,0.2
					c0,0.1,0,0.5,0.1,1.2c0,0.3,0.1,0.8,0.1,1.3c0,0.4,0.1,0.7,0.2,1.1c0.1,0.4,0.2,0.9,0.3,1.3c0.1,0.3,0.2,0.7,0.3,1.1
					c0.2,0.4,0.3,0.9,0.5,1.3c0.1,0.3,0.3,0.5,0.4,0.7c0.2,0.3,0.4,0.5,0.4,0.5c0,0,0,0.1,0,0.1c0,0-0.1,0.1-0.1,0.1
					c0,0-0.1,0-0.1,0C91.9,56.5,91.9,56.5,91.8,56.5 M92.6,44.7c0,0-0.1,0-0.1,0c0,0-0.1-0.1-0.1-0.1c0,0,0-0.1,0-0.2
					c0-0.1,0.1-0.5,0.2-0.9c0.1-0.4,0.2-0.7,0.3-1c0.1-0.3,0.3-0.7,0.6-0.9c0.2-0.2,0.4-0.3,0.6-0.3c0.2,0,0.4,0.1,0.6,0.3
					c0.1,0.1,0.2,0.2,0.3,0.4c0.1,0.1,0.1,0.2,0.2,0.3c0.1,0.3,0.3,0.7,0.4,1.1c0.1,0.5,0.2,1,0.2,1.1c0,0.1,0,0.1-0.1,0.2
					c-0.1,0-0.2,0-0.6,0c-0.4,0-0.6,0-1,0c-0.4,0-1,0-1.2,0c0,0-0.1,0-0.2,0C92.8,44.7,92.7,44.7,92.6,44.7 M89.7,44.5
					c-0.2,0-0.4,0-1-0.1c-0.3-0.1-0.8-0.2-1.3-0.3c-0.4-0.1-0.8-0.2-1.1-0.3c-0.7-0.2-1-0.5-1.3-0.7c-0.2-0.1-0.4-0.3-0.5-0.5
					c-0.1-0.2-0.2-0.4-0.2-0.7c0-0.4,0.3-0.7,0.6-1c0.3-0.2,0.6-0.4,0.8-0.6c0.3-0.2,0.9-0.4,1.4-0.7c0.5-0.2,1.1-0.4,1.4-0.5
					c0.3-0.1,1.1-0.3,1.7-0.4c0.7-0.1,1.4-0.2,1.5-0.2c0,0,0.1,0,0.1,0c0,0,0,0,0,0c0.1,0,0.1,0,0.2,0.1c0,0,0.1,0.1,0,0.1
					c0,0.1-0.1,0.1-0.2,0.3c-0.1,0.1-0.2,0.3-0.3,0.5c-0.1,0.1-0.2,0.3-0.3,0.6c-0.1,0.1-0.1,0.3-0.2,0.4c-0.1,0.2-0.2,0.5-0.3,0.8
					c-0.1,0.4-0.4,1.3-0.5,1.5c-0.1,0.3-0.1,0.6-0.2,0.8c0,0.2-0.1,0.3-0.1,0.5c0,0.1,0,0.2-0.1,0.3c0,0,0,0.1-0.1,0.1
					c0,0,0,0-0.1,0C89.8,44.5,89.8,44.5,89.7,44.5 M98.3,44.4c0,0,0-0.2-0.1-0.3c0-0.1-0.1-0.3-0.1-0.5c0-0.2-0.1-0.5-0.2-0.8
					c-0.1-0.3-0.1-0.5-0.2-0.7c0-0.2-0.1-0.5-0.3-0.8c-0.1-0.3-0.3-0.6-0.3-0.8c-0.2-0.4-0.4-0.7-0.5-1c-0.1-0.2-0.2-0.4-0.3-0.5
					c-0.1-0.1-0.2-0.2-0.2-0.3c0,0,0-0.1,0-0.1c0.1-0.1,0.1-0.1,0.3-0.1c0.2,0,0.8,0.1,1.5,0.2c0.7,0.1,1.4,0.3,1.7,0.4
					c0.3,0.1,0.9,0.3,1.4,0.5c0.6,0.2,1.1,0.5,1.4,0.7c0.2,0.1,0.6,0.3,0.8,0.6c0.3,0.3,0.6,0.6,0.6,1c0,0.3-0.1,0.5-0.2,0.7
					c-0.1,0.2-0.3,0.4-0.5,0.5c-0.3,0.2-0.7,0.4-1.3,0.7c-0.3,0.1-0.7,0.2-1.1,0.3c-0.5,0.1-1,0.2-1.3,0.3c-0.6,0.1-0.7,0.1-1,0.1
					c-0.1,0-0.1,0-0.1,0C98.4,44.5,98.3,44.5,98.3,44.4 M92.7,36.5c-0.5,0-1.1,0.1-1.5,0.1c-0.2,0-0.5,0.1-0.8,0.1
					c-0.2,0-0.5,0.1-0.7,0.1c-0.5,0.1-1,0.2-1.4,0.3c-0.8,0.2-1.8,0.5-2.6,0.8c-0.3,0.1-0.8,0.3-1.3,0.5c-0.4,0.2-0.8,0.4-0.8,0.4
					c-0.3,0.2-0.9,0.5-1.6,1c-0.2,0.2-0.5,0.4-0.7,0.6c-0.5,0.4-1,0.9-1.5,1.5c-0.3,0.4-0.6,0.8-0.8,1.3c-0.4,0.8-0.8,1.7-0.9,2.6
					C78,46.8,78,47.5,78,47.9c0,0.8,0.2,1.7,0.4,2.4c0.3,0.8,0.6,1.4,0.8,1.6c0.1,0.2,0.3,0.6,0.6,0.9c0.3,0.3,0.5,0.6,0.8,0.9
					c0.3,0.3,0.5,0.5,0.6,0.6c0.1,0.1,0.4,0.4,0.8,0.6c0.2,0.1,0.4,0.3,0.6,0.4c-0.1-0.1,0.6,0.4,1.6,0.9c0.4,0.2,0.9,0.5,1.4,0.7
					c0.5,0.2,1,0.4,1.3,0.5c0.3,0.1,0.9,0.3,1.6,0.5c0.5,0.1,1.2,0.3,1.8,0.4c1.4,0.2,2.9,0.3,3.3,0.3c0.1,0,0.3,0,0.5,0
					c0.3,0,0.6,0,0.9,0c0.4,0,0.8,0,0.9,0c0.3,0,1.2-0.1,2.2-0.3c0.5-0.1,1.1-0.2,1.8-0.4c0.5-0.1,1.1-0.3,1.7-0.5
					c0.2-0.1,0.3-0.1,0.5-0.2c0.2-0.1,0.4-0.2,0.7-0.2c0.3-0.1,0.6-0.3,0.8-0.4c0.2-0.1,0.5-0.2,0.9-0.5c0.4-0.2,0.8-0.5,1.2-0.8
					c0.8-0.5,1.3-1,1.9-1.5c0.2-0.2,0.4-0.4,0.6-0.7c0.2-0.2,0.4-0.5,0.6-0.7c0.1-0.1,0.2-0.3,0.3-0.5c0.1-0.1,0.2-0.3,0.3-0.5
					c0.1-0.2,0.2-0.5,0.3-0.7c0.2-0.4,0.3-0.8,0.4-1.1c0.1-0.3,0.2-0.8,0.2-1.2c0-0.4,0.1-0.7,0.1-1c0-0.6-0.1-1.4-0.3-2.3
					c-0.2-0.7-0.5-1.5-0.9-2.3c-0.1-0.2-0.2-0.4-0.5-0.7c-0.1-0.2-0.2-0.3-0.4-0.5c-0.3-0.4-0.8-0.9-1.4-1.4c-0.4-0.3-0.8-0.7-1.3-1
					c-0.3-0.2-0.6-0.4-1-0.6c-0.5-0.3-1.2-0.6-1.8-0.8c-0.5-0.2-0.9-0.4-1.4-0.5c-1.2-0.4-2.6-0.6-3.7-0.8c-1.7-0.2-3.1-0.2-3.3-0.2
					c-0.1,0-0.3,0-0.5,0C93.5,36.5,93.1,36.5,92.7,36.5"/>
			</defs>
			<clipPath id="SVGID_6_">
				<use xlink:href="#SVGID_5_"  style="overflow:visible;"/>
			</clipPath>
			<g class="st5">
				<defs>
					<rect id="SVGID_7_" x="73.1" y="33.5" width="42.1" height="28.1"/>
				</defs>
				<clipPath id="SVGID_8_">
					<use xlink:href="#SVGID_7_"  style="overflow:visible;"/>
				</clipPath>
				<g transform="matrix(1 0 0 1 0 0)" style="clip-path:url(#SVGID_8_);">
					
						<image style="overflow:visible;" width="780" height="520" xlink:href="62D7AF260CDEDFEB.jpg"  transform="matrix(5.396340e-02 0 0 5.396340e-02 73.0993 33.4898)">
					</image>
				</g>
			</g>
		</g>
		<rect x="116.2" y="36.3" class="st6" width="0.5" height="23.9"/>
		<g class="st1">
			<defs>
				<rect id="SVGID_9_" x="1.5" y="2.3" width="274.2" height="57.9"/>
			</defs>
			<clipPath id="SVGID_10_">
				<use xlink:href="#SVGID_9_"  style="overflow:visible;"/>
			</clipPath>
			<path class="st7" d="M213.6,23.3c1,0,1.8,0.8,1.8,1.8c0,1-0.8,1.8-1.8,1.8c-1,0-1.8-0.8-1.8-1.8
				C211.7,24.1,212.6,23.3,213.6,23.3"/>
			<path class="st7" d="M229.1,14.7c-0.6-2.5-2.2-4.1-5-4.1c-4.1,0-6.2,3.6-6.2,7.3c0,3.6,2,7.3,6.2,7.3c2.7,0,4.9-2,5.1-4.9h2.2
				c-0.6,4.1-3.3,6.6-7.3,6.6c-5.4,0-8.3-4.1-8.3-9c0-4.9,2.9-9,8.3-9c3.8,0,6.7,2,7.1,5.9H229.1z"/>
			<path class="st7" d="M249.5,17.8c0,4.9-2.9,9-8.3,9c-5.4,0-8.3-4.1-8.3-9c0-4.9,2.9-9,8.3-9C246.5,8.8,249.5,12.9,249.5,17.8
				 M234.9,17.8c0,3.6,2,7.3,6.2,7.3c4.1,0,6.2-3.6,6.2-7.3c0-3.6-2-7.3-6.2-7.3C237,10.6,234.9,14.2,234.9,17.8"/>
			<path class="st7" d="M251.3,9.3h2v2.9h0.1c1.1-2.1,3-3.4,5.8-3.4c2.3,0,4.4,1.1,5.1,3.3c1.1-2.2,3.3-3.3,5.6-3.3
				c3.9,0,5.8,2,5.8,6v11.6h-2.2V14.9c0-2.8-1.1-4.3-4.2-4.3c-3.7,0-4.8,3-4.8,6.2v9.7h-2.2V14.8c0-2.3-1-4.2-3.7-4.2
				c-3.7,0-5.2,2.7-5.3,6.3v9.5h-2.2V9.3z"/>
		</g>
	</g>
</g>
</svg>
